<svg id="Layer_1" data-name="Layer 1" xmlns="http://www.w3.org/2000/svg" xmlns:xlink="http://www.w3.org/1999/xlink" viewBox="0 0 192.6 196.1"><defs><style>.cls-1{fill:#0f1e35;}.cls-2{fill:#f84848;}.cls-3{fill:url(#linear-gradient);}</style><linearGradient id="linear-gradient" x1="61.14" y1="87.63" x2="141.1" y2="133.9" gradientUnits="userSpaceOnUse"><stop offset="0" stop-color="#fd5a79"/><stop offset="0.12" stop-color="#fd5374"/><stop offset="0.28" stop-color="#fd4165"/><stop offset="0.29" stop-color="#fd4064"/><stop offset="0.37" stop-color="#f53558"/><stop offset="0.67" stop-color="#db0e30"/><stop offset="0.86" stop-color="#d90e30"/><stop offset="0.92" stop-color="#d20d2f"/><stop offset="0.97" stop-color="#c70d2e"/><stop offset="1" stop-color="#ba0c2d"/></linearGradient></defs><path class="cls-1" d="M100,198a85.9,85.9,0,0,1-86.1-85.8,91.1,91.1,0,0,1,.6-10.5,7.3,7.3,0,0,1,8.2-6.3,7.2,7.2,0,0,1,6.3,8.1,84.6,84.6,0,0,0-.5,8.7c0,39.3,32.1,71.2,71.5,71.2s71.5-31.9,71.5-71.2a84.6,84.6,0,0,0-.5-8.7,7.2,7.2,0,0,1,6.3-8.1,7.3,7.3,0,0,1,8.2,6.3,91.1,91.1,0,0,1,.6,10.5C186.1,159.5,147.5,198,100,198Z" transform="translate(-3.7 -2)"/><path class="cls-2" d="M156.8,89.1a6.1,6.1,0,0,1-5.5-3.7,56.2,56.2,0,0,0-102.6,0,6,6,0,0,1-8,3.1,6.1,6.1,0,0,1-3.1-8,68.3,68.3,0,0,1,124.8,0,6.1,6.1,0,0,1-3.1,8A7.6,7.6,0,0,1,156.8,89.1Z" transform="translate(-3.7 -2)"/><path class="cls-2" d="M172.6,79.6a6.1,6.1,0,0,1-5.5-3.6A73.4,73.4,0,0,0,32.9,76a6.1,6.1,0,1,1-11.1-5,85.6,85.6,0,0,1,156.4,0,6.1,6.1,0,0,1-3.1,8.1A7,7,0,0,1,172.6,79.6Z" transform="translate(-3.7 -2)"/><path class="cls-2" d="M190.2,72.8a6.1,6.1,0,0,1-5.5-3.7,92.7,92.7,0,0,0-169.4,0A6.1,6.1,0,1,1,4.2,64.2a104.9,104.9,0,0,1,191.6,0,6.1,6.1,0,0,1-3.1,8.1A7,7,0,0,1,190.2,72.8Z" transform="translate(-3.7 -2)"/><circle class="cls-3" cx="95.7" cy="107.6" r="46.2"/></svg>