<svg id="Layer_6" data-name="Layer 6" xmlns="http://www.w3.org/2000/svg" xmlns:xlink="http://www.w3.org/1999/xlink" viewBox="0 0 274.85 233.69"><defs><style>.cls-1,.cls-3,.cls-7,.cls-9{fill:none;}.cls-2{fill:#bebebe;}.cls-3,.cls-7,.cls-9{stroke:#000;stroke-miterlimit:10;}.cls-3,.cls-7{stroke-width:0.5px;}.cls-4{font-size:9px;font-family:MyriadPro-Regular, Myriad Pro;}.cls-5,.cls-6{fill:#87c221;}.cls-5{font-size:6px;}.cls-7{stroke-linecap:round;}.cls-8{fill:#fade2a;}.cls-9{stroke-width:0.25px;}.cls-10{fill:#2c4bff;}.cls-11{fill:#e0364f;}.cls-12{clip-path:url(#clip-path);}.cls-13{fill:#fff;}.cls-14{clip-path:url(#clip-path-2);}.cls-15{clip-path:url(#clip-path-3);}.cls-16{fill:#0f0f0f;}</style><clipPath id="clip-path" transform="translate(-3.47 -20.11)"><path class="cls-1" d="M146.57,149l11.93.42h25.69s1.7-4.76-6-8.68c0,0-4-2.13-6.43-3.66H161.64l-1.19,2.81-.91-2.81H150Z"/></clipPath><clipPath id="clip-path-2" transform="translate(-3.47 -20.11)"><path class="cls-1" d="M100,152.67c.22.13,10,6.47,10,6.47L132.1,172.3s3.91-3.22-.74-10.55c0,0-2.35-3.88-3.64-6.43l-8.67-5.17-2.46,1.8.66-2.87-8.19-4.89Z"/></clipPath><clipPath id="clip-path-3" transform="translate(-3.47 -20.11)"><circle class="cls-1" cx="134.1" cy="28.56" r="6.24"/></clipPath></defs><rect class="cls-2" x="49.17" y="198.21" width="19.47" height="35.24"/><rect class="cls-2" x="84.29" y="175.04" width="19.47" height="58.4"/><rect class="cls-2" x="119.41" y="151.87" width="19.47" height="81.57"/><rect class="cls-2" x="154.52" y="128.7" width="19.47" height="104.74"/><rect class="cls-2" x="189.64" y="105.53" width="19.47" height="127.91"/><rect class="cls-2" x="224.76" y="82.36" width="19.47" height="151.08"/><line class="cls-3" y1="233.44" x2="24.51" y2="233.44"/><path class="cls-3" d="M44.45,253.55H175.26a52.12,52.12,0,0,0,22-4.69,50.91,50.91,0,0,0,7.93-4.58c20.45-14.4,25.37-40.41,21.58-49-.57-1.31-1.92-4.39-5.1-5.79a6.24,6.24,0,0,0-1.82-.56,7.55,7.55,0,0,0-7.76,4.64c-.06.16-1.27,3.52.66,6.24a7,7,0,0,0,4.15,2.61c7.6,2,20.17-9.16,22.51-11.27a140.38,140.38,0,0,0,19.53-21.58,210.36,210.36,0,0,0,17.61-29" transform="translate(-3.47 -20.11)"/><path d="M276.05,141.3l-2.1.15v-.07l2.38-2.08,2-2.43c-.27,1-.53,2-.8,3l-.3,3.15-.05,0Z" transform="translate(-3.47 -20.11)"/><text class="cls-4" transform="translate(200.68 65.54)"><tspan xml:space="preserve">98,765    </tspan><tspan class="cls-5" x="32.58" y="0">14%</tspan></text><polygon class="cls-6" points="229.82 63.06 227.35 65.54 232.28 65.54 229.82 63.06"/><path class="cls-7" d="M132.94,84.42s5.17,6.74,9,5.12c3.4-1.45,11.54-2.17,13.28.14a.8.8,0,0,1-.33,1.18c-1.82.85-6.53,3.44-3.2,6.1a17.11,17.11,0,0,0,5.48,1.63s3.1,1.09-1.88,2.18c0,0-1.15,0,.39,1.94s-4,.63-4,.63-.34.6.84,1.78-4,.52-4,.52-13.77-2.12-24-11.87" transform="translate(-3.47 -20.11)"/><path class="cls-8" d="M132.87,41.3a39.91,39.91,0,0,0-19.43,8.58c-3.83,3.18-8,6.63-9.21,12.24-1.84,8.43,4.12,16.31,9.62,23.59a65.44,65.44,0,0,0,9.42,10.07l11.66-13.7c-6.11-4-11-7.63-14.52-10.45-4.1-3.26-6.26-5.28-6.15-7.84.1-2.18,1.81-3.76,4.48-6.16a34.51,34.51,0,0,1,9-5.81Q130.29,46.57,132.87,41.3Z" transform="translate(-3.47 -20.11)"/><path class="cls-9" d="M127.73,51.82a34.51,34.51,0,0,0-9,5.81c-2.67,2.4-4.38,4-4.48,6.16-.11,2.56,2,4.58,6.15,7.84" transform="translate(-3.47 -20.11)"/><path class="cls-9" d="M132.87,41.3a39.91,39.91,0,0,0-19.43,8.58c-3.83,3.18-8,6.63-9.21,12.24-1.84,8.43,4.12,16.31,9.62,23.59" transform="translate(-3.47 -20.11)"/><path class="cls-10" d="M121.3,75.34l8.17,37.28-14.58,23.47L137.64,150l12.17-32.37a13,13,0,0,0-.26-9.82L135.34,75.34Z" transform="translate(-3.47 -20.11)"/><path class="cls-10" d="M156,121.3l27.32,8.42,3.42-34.36a11.4,11.4,0,0,0-8-12L143.26,72.53l-11,3.83,31.57,21.93Z" transform="translate(-3.47 -20.11)"/><polyline class="cls-3" points="117.83 55.23 126 92.51 105.85 124.59"/><line class="cls-3" x1="117.4" y1="132.89" x2="128.8" y2="120.59"/><line class="cls-3" x1="138.25" y1="119.06" x2="145.16" y2="100.68"/><polyline class="cls-3" points="144.39 83.82 134.31 60.09 165.06 81.27"/><line class="cls-3" x1="147.18" y1="117.21" x2="160.37" y2="78.17"/><line class="cls-3" x1="163.78" y1="117.55" x2="171.45" y2="100.68"/><path class="cls-11" d="M146.57,149l11.93.42h25.69s1.7-4.76-6-8.68c0,0-4-2.13-6.43-3.66H156.64l-1.19,2.81-.91-2.81H150Z" transform="translate(-3.47 -20.11)"/><g class="cls-12"><rect class="cls-13" x="141.7" y="125.95" width="41.64" height="4.98"/><line class="cls-3" x1="143.11" y1="127.48" x2="166.12" y2="127.48"/><line class="cls-3" x1="171.11" y1="127.48" x2="194.12" y2="127.48"/></g><circle class="cls-9" cx="165.87" cy="119.12" r="0.96"/><circle class="cls-9" cx="168.87" cy="121.12" r="0.96"/><circle class="cls-9" cx="171.87" cy="123.12" r="0.96"/><path class="cls-11" d="M100,152.67c.22.13,10,6.47,10,6.47L132.1,172.3s3.91-3.22-.74-10.55c0,0-2.35-3.88-3.64-6.43l-13-7.73-2.46,1.8.66-2.87-3.9-2.33Z" transform="translate(-3.47 -20.11)"/><g class="cls-14"><rect class="cls-13" x="96.08" y="159.78" width="41.64" height="4.98" transform="matrix(0.86, 0.51, -0.51, 0.86, 96.13, -57.08)"/><line class="cls-3" x1="97.24" y1="131.39" x2="117.01" y2="143.18"/><line class="cls-3" x1="121.29" y1="145.73" x2="141.06" y2="157.52"/></g><circle class="cls-9" cx="121.08" cy="135.87" r="0.96"/><circle class="cls-9" cx="122.63" cy="139.12" r="0.96"/><circle class="cls-9" cx="124.18" cy="142.38" r="0.96"/><line class="cls-3" x1="127.76" y1="20.89" x2="127.76" y2="13.99"/><line class="cls-3" x1="133.76" y1="20.89" x2="133.76" y2="13.99"/><polygon class="cls-8" points="127.28 20.08 114.17 55.23 143.45 57.53 135.11 20.95 127.28 20.08"/><path class="cls-7" d="M168.53,64.08S177,63,177.47,58.91c.46-3.67,3.94-11.06,6.81-11.4a.8.8,0,0,1,.85.89c-.18,2-.32,7.37,3.66,5.83A17,17,0,0,0,193,50.32s2.51-2.13.93,2.72c0,0-.59,1,1.88.64s-1.45,3.75-1.45,3.75.34.59,2,.17-1.58,3.72-1.58,3.72-8.76,10.83-22.34,14.74" transform="translate(-3.47 -20.11)"/><path class="cls-8" d="M131.26,42.4a39.87,39.87,0,0,0-2.39,21.11c.81,4.9,1.7,10.24,5.93,14.12,6.35,5.83,16.16,4.66,25.22,3.58a65.37,65.37,0,0,0,13.45-3.06l-6-17c-6.51,3.28-12.11,5.64-16.34,7.28-4.89,1.89-7.72,2.75-9.87,1.36-1.84-1.19-2.34-3.46-3.07-7a34.41,34.41,0,0,1-.48-10.68Q134.5,47.28,131.26,42.4Z" transform="translate(-3.47 -20.11)"/><path class="cls-9" d="M137.75,52.15a34.41,34.41,0,0,0,.48,10.68c.73,3.52,1.23,5.79,3.07,7,2.15,1.39,5,.53,9.87-1.36" transform="translate(-3.47 -20.11)"/><path class="cls-9" d="M131.26,42.4a39.87,39.87,0,0,0-2.39,21.11c.81,4.9,1.7,10.24,5.93,14.12,6.35,5.83,16.16,4.66,25.22,3.58" transform="translate(-3.47 -20.11)"/><g class="cls-15"><polygon points="122.04 3.27 129.02 5.58 130.63 3.27 130.63 6.42 138.38 8.45 135.57 0.72 127.75 0 122.04 3.27"/></g><path class="cls-3" d="M140,30.52a6.1,6.1,0,0,0,.32-2,6.25,6.25,0,1,0-.76,3" transform="translate(-3.47 -20.11)"/><polyline class="cls-7" points="134.31 11.53 136.11 11.44 138.38 11.33 136.55 10.41 135.32 9.78"/><path class="cls-3" d="M128,29.76a2.37,2.37,0,0,1,.16-4.73,2.25,2.25,0,0,1,.74.12" transform="translate(-3.47 -20.11)"/><circle class="cls-3" cx="130.63" cy="8.45" r="2.87"/><circle class="cls-16" cx="130.63" cy="8.45" r="0.48"/><path class="cls-7" d="M130.06,29.89s.51,3.58,4.85,3.49" transform="translate(-3.47 -20.11)"/></svg>