<svg id="Layer_1_copy" data-name="Layer 1 copy" xmlns="http://www.w3.org/2000/svg" xmlns:xlink="http://www.w3.org/1999/xlink" viewBox="0 0 347.54 371.23"><defs><style>.cls-1,.cls-12{fill:none;}.cls-2{fill:#87c221;}.cls-3{clip-path:url(#clip-path);}.cls-10,.cls-11,.cls-15,.cls-4{fill:#fff;}.cls-5{fill:#ef8ea7;}.cls-6{clip-path:url(#clip-path-2);}.cls-7{fill:url(#linear-gradient);}.cls-11,.cls-8{opacity:0.6;}.cls-9{clip-path:url(#clip-path-3);}.cls-10{font-size:77.63px;font-family:Poppins-Bold, Poppins;font-weight:700;}.cls-11{font-size:3.82px;font-family:Poppins-SemiBold, Poppins;font-weight:600;letter-spacing:0.2em;}.cls-12{stroke:#000;stroke-miterlimit:10;}.cls-13{fill:#2c4bff;}.cls-14{clip-path:url(#clip-path-4);}.cls-15{fill-rule:evenodd;}.cls-16{fill:#fade2a;}.cls-17{fill:#e0364f;}</style><clipPath id="clip-path" transform="translate(26.13 -10.66)"><circle class="cls-1" cx="87.02" cy="223.18" r="20.96"/></clipPath><clipPath id="clip-path-2" transform="translate(26.13 -10.66)"><rect class="cls-1" width="300" height="300"/></clipPath><linearGradient id="linear-gradient" x1="39.47" y1="88.32" x2="178.09" y2="182.47" gradientUnits="userSpaceOnUse"><stop offset="0" stop-color="#515151"/><stop offset="0.71" stop-color="#303230"/></linearGradient><clipPath id="clip-path-3" transform="translate(26.13 -10.66)"><rect class="cls-1" x="18.07" y="78.43" width="169.09" height="105.55" rx="5.87" transform="translate(176.82 -17.92) rotate(64.48)"/></clipPath><clipPath id="clip-path-4" transform="translate(26.13 -10.66)"><polygon class="cls-1" points="252.61 226.47 150.14 273.5 196.94 381.89 321.41 334.86 252.61 226.47"/></clipPath></defs><circle class="cls-2" cx="113.15" cy="212.52" r="20.96"/><g class="cls-3"><path class="cls-4" d="M76.79,216.24c1.82-4.29,6.5-6.76,10.51-8.68a47.91,47.91,0,0,1,7.27-2.76c1.2-.34,2.43-.64,3.66-.89s3.26-.91,4.3-.11c1.88,1.44,1,4.86.36,6.65a27.58,27.58,0,0,1-3.28,5.79,45.41,45.41,0,0,1-9.41,9.62c-4.43,3.42-9.58,6.76-15.16,7.81l.59.06c.3-2.75,2.49-4.79,4.47-6.51a31.61,31.61,0,0,1,6.68-4.48c4.74-2.37,10.75-4,16.07-3.13,2.4.39,4.94,1.79,5.47,4.36.59,2.84-1.45,5.31-3.66,6.79a16.9,16.9,0,0,1-3.88,1.92c-1,.33-4.71,1.62-5.16.31-.36-1,.73-2.47,1.32-3.22a14.24,14.24,0,0,1,3-2.72c5.2-3.65,11.48-5.25,17.65-6.34.57-.1,1.3-.7.28-.51-6.51,1.15-13.14,2.84-18.69,6.59a16.58,16.58,0,0,0-3.38,2.87c-.72.84-2.07,2.49-1.65,3.72.35,1,1.74.74,2.57.65a21.49,21.49,0,0,0,4.74-1.11c2.75-1,5.79-2.59,7.4-5.14a5.29,5.29,0,0,0-1.42-7.44c-2.48-1.7-5.82-1.59-8.7-1.36a35.24,35.24,0,0,0-9.28,2.07,34.74,34.74,0,0,0-9,4.88c-2.65,2-6,4.67-6.35,8.19,0,.16.55.07.59.06,5.38-1,10.24-3.79,14.67-6.92a48.56,48.56,0,0,0,11-10.46,26.37,26.37,0,0,0,4.1-7.22c.62-1.86,1.2-5.26-.91-6.45a4.07,4.07,0,0,0-2.51-.18c-1.45.21-2.89.49-4.32.82a50.88,50.88,0,0,0-7.71,2.47,47,47,0,0,0-8.2,4.27,14,14,0,0,0-5.53,6c-.09.21,1.27.1,1.43-.27Z" transform="translate(26.13 -10.66)"/><rect class="cls-5" x="53.07" y="233.27" width="27.92" height="19.29" transform="translate(217.53 13.09) rotate(45)"/></g><g class="cls-6"><g id="C1"><path class="cls-7" d="M183.84,184.89a6.13,6.13,0,0,1-2.68,2.5l-6,2.89A97.32,97.32,0,0,1,145,170.33c-3.38-3.28-7.06-7.06-11.76-7.15a5.79,5.79,0,0,0-3.26.82,6.74,6.74,0,0,0-2,2.16c-4.47,7-3.29,16.34.11,23.93,2.81,6.24,6.93,11.78,10.51,17.61L96.9,227.61a6.09,6.09,0,0,1-8.12-2.87L21.19,83.14A6.1,6.1,0,0,1,24.07,75L108.32,34.8a6.1,6.1,0,0,1,8.13,2.87L184,179.27a5.74,5.74,0,0,1,.52,1.73A6.07,6.07,0,0,1,183.84,184.89Z" transform="translate(26.13 -10.66)"/><g class="cls-8"><g class="cls-9"><text class="cls-10" transform="translate(42.46 62.45) rotate(64.48)">h</text><text class="cls-10" transform="translate(59.34 108.46) rotate(64.48)">i</text></g></g><g class="cls-8"><path class="cls-4" d="M109.15,42.79a1.63,1.63,0,0,1,2.09-1l.09,0c.09,0,.21,0,.26-.2l0-.11c.06-.16,0-.32-.07-.36l-.09,0a2.34,2.34,0,0,0-3,1.43l0,.09c0,.1.08.22.24.28l.12,0c.15,0,.29,0,.31-.08Z" transform="translate(26.13 -10.66)"/><path class="cls-4" d="M107.09,42.11l0,.07c0,.08.09.19.24.25l.12,0c.15.05.29,0,.32,0l0-.08,0,0a3.08,3.08,0,0,1,3.94-1.88l.08,0,.06,0c.07,0,.16-.07.22-.23l0-.11c0-.15,0-.3,0-.33l-.06,0-.08,0a3.8,3.8,0,0,0-4.85,2.31Z" transform="translate(26.13 -10.66)"/><path class="cls-4" d="M110,44.71a.15.15,0,0,1,0-.16l1-1.74a2,2,0,0,0-1.27.72.17.17,0,0,1-.24,0,.16.16,0,0,1,0-.23,2.45,2.45,0,0,1,1.85-.88.16.16,0,0,1,.14.08.17.17,0,0,1,0,.17l-1,1.75a2.67,2.67,0,0,0,1.34-.77.17.17,0,0,1,.25.22,2.74,2.74,0,0,1-1.9.9.16.16,0,0,1-.14-.08Z" transform="translate(26.13 -10.66)"/></g><text class="cls-11" transform="translate(186.12 140.85) rotate(64.48)">NFC EMBEDDED </text></g><path class="cls-12" d="M185.61,175.24l.77,12.53a5.74,5.74,0,0,1-.4,3.11c-1.25,2.3-4.66,1.81-7.11.9A97.61,97.61,0,0,1,145,170.33c-3.38-3.28-7.06-7.06-11.76-7.15a5.79,5.79,0,0,0-3.26.82,6.74,6.74,0,0,0-2,2.16c-4.47,7-3.29,16.34.11,23.93s8.76,14.12,12.73,21.43c4.53,8.34,7.19,17.54,10.29,26.51a273.2,273.2,0,0,0,16.12,37.28" transform="translate(26.13 -10.66)"/><path class="cls-12" d="M155.45,111.4c6.29,2.15,11.74,6.23,16.65,10.71,13.43,12.25,23.47,27.76,32,43.83,8,15.16,13,27.89,24,48.95q6.12,11.69,13.17,22.86" transform="translate(26.13 -10.66)"/><polygon class="cls-13" points="278.75 215.8 176.27 262.83 223.07 371.23 347.54 324.2 278.75 215.8"/><g class="cls-14"><path class="cls-15" d="M276.7,285c-.07-.1.5-.6.25-.58l.58-.59c.17,0-.66.88-.07.34C277.45,284.33,277,284.74,276.7,285Zm-2.53,2.84c0-.1.42-.41.37-.48.42-.44.38-.19.52-.28.38-.28,1.2-1.22,1.15-.88A11.79,11.79,0,0,1,274.17,287.88Zm2.45-2.94-1,1C275.49,285.77,276.65,284.58,276.62,284.94Zm-12.14,11a4.28,4.28,0,0,1,1.16-.9c.43-.33,0-.28.35-.55.8-.56,1.57-1.16,2.33-1.76s-.36.38-.65.59c.14.06.86-.53.85-.29.42-.34,0-.28.33-.56a6.46,6.46,0,0,1,2.28-1.33,9,9,0,0,1,1.83-1.46,24.45,24.45,0,0,1-3.75,2.81c.19-.07.57-.36.56-.21-.85.64-1.83,1.42-2,1.24-1.38.9-2.09,1.77-3.22,2.58.06-.05-.26-.05-.54.24.05.17.87-.48.66,0a12,12,0,0,0-1.64,1.25,16.25,16.25,0,0,0-1.51.92c0-.05.28-.24.47-.37.73-.69.33-.88,1.63-1.85-.55.48-.27.61-.74,1,.08,0,.46-.26.75-.46a3.45,3.45,0,0,0,.26-.7C264.4,295.75,264.41,295.89,264.48,296Zm7.85-7.14c-.27,0,.65-.84,1-1C273.42,287.9,272.89,288.35,272.33,288.81Zm-5,4,.46-.36a6.67,6.67,0,0,1,1.21-.79c2.05-1.55-.32.28-.62.64C268.07,292.44,267.4,293,267.34,292.82Zm3.38-2.79a8.73,8.73,0,0,1,.91-.7c-.19.31-1.15,1-.71,1C270.39,290.71,270.56,290.21,270.72,290Zm3-1.77c.63-.51.13.14-.37.47.28,0,1.54-1.33,1.85-1.42-.43.54-.8.65-1.52,1.38-.15-.06-.84.57-.84.32C273.22,288.61,273.68,288.53,273.72,288.26Zm4.36-4.18c.42,0-1.46,1.83-1.39,1.39A8.31,8.31,0,0,0,278.08,284.08Zm-62.15.42c-.24.3.9-.2,1.44-.36-.2.2-1.28.63-1.41.48-.52.19-.12.26-.5.42-.7.13-1.59.55-2.27.69-.12,0,.05-.19,0-.18s-2,.67-1.16.24a4.42,4.42,0,0,1,1.74-.36,9.46,9.46,0,0,0,1.66-.68c-.43-.12-.92.32-1.69.57a16.74,16.74,0,0,0-3.2.86c-1.41.42-2.95.91-3.94,1.09,4.11-1.22,9.4-2.87,13.25-4.27C219.19,283.41,216.56,284.13,215.93,284.5Zm8.62-4.1c.25-.4,1.45-.69,2.1-1.1a3.93,3.93,0,0,1,1.06-.49c.33.08-.4.47-1.23.84S224.67,280.34,224.55,280.4Zm-2.5.83c-.18.12-.38.33,0,.18s.62-.37.24-.23a23.21,23.21,0,0,1,2.17-.89l0,.11-3,1.36c-1,.44-1.86.84-2.72,1.14a13.74,13.74,0,0,0-2.23.74c-.36,0-.13-.06,0-.18a10.47,10.47,0,0,0-2.27.58c-.33-.14,2.31-.71,1.64-.68.49-.37.87-.1,1.17-.15A1.15,1.15,0,0,1,218,283c.31-.08.83-.33,1.11-.4s.09.16.59-.08c.28-.12.1-.11,0-.12-.4,0-.59.21-1.42.39,0,0,.37-.25.25-.22-.5.12-1.58.68-1.42.39C219.31,282.19,220.46,281.83,222.05,281.23Zm-.5.39a6.47,6.47,0,0,0-1.4.42C219.87,282.34,221.38,281.84,221.55,281.62Zm54.09,5.3c.87-.8,1-.58,2-1.63a4.37,4.37,0,0,1-1.68,1.58,6,6,0,0,1-1.95,1.78c-.61.33.61-.46,1.11-1S275.46,287.18,275.64,286.92Zm-45.88-9.29c1-.55,2.45-.92.9-.11C231.48,276.88,229.7,277.9,229.76,277.63Zm-2,1.4,1.34-.61C229.6,278.4,227.45,279.4,227.79,279Zm50.61,4.18-.55.6-.17-.18.56-.59C278,283.46,278.31,283.07,278.4,283.21Zm-65,.93c.16-.21,1.24-.55,1.32-.76,1.95-.61,4.3-1.56,5.81-2-1.59.77-3.63,1.33-5.22,1.94C214.49,283.64,214.28,283.85,213.43,284.14ZM212,272.89a20.47,20.47,0,0,1-4.58,1.12,9.7,9.7,0,0,1,2.29-.54C210.62,273.26,211.19,273,212,272.89Zm49.68,24.64c1.05-.7-.53,0,.62-.69-.19.05-.59.31-.58.16.43-.34.81-.48,1.24-.77s1.34-1.06,1.24-.75a7.33,7.33,0,0,1-1.21.8c-.52.37.07.21.09.16-.1.23-1.09.75-.6.71-1.21.62-1.3,1-2.21,1.45.11-.13.21-.25.16-.32C260.8,298.08,261.66,297.39,261.68,297.53Zm-53.65-12a3.87,3.87,0,0,1,1.69-.5c.28-.08.21-.13.26-.2a11,11,0,0,0,2-.67c.32-.1,1.24-.46,1.15-.23a18.09,18.09,0,0,0-2.49,1C209.71,285.19,209.22,285.16,208,285.54Zm-20-36.42c-.46-.12,2.49-1.15,2.27-.73-.56.16-.39-.06-1.16.22s.35.06.6,0c1.24-.35.64-.54,1.94-.89a5.17,5.17,0,0,1-2.2,1.09C188.8,249,188.78,248.9,188,249.12Zm24-5.61c.7-.16,1.83-.49,1.76-.2a6.91,6.91,0,0,0-1.47.15c-.2.24,1.2-.14.91.14-.79.11-2.85.27-2.34.42-.41.22-1.6.28-1.47.1.33-.1.84-.15,1.16-.23.17,0,.22-.16.28-.17C211.21,243.63,211.67,243.59,212,243.51Zm-4.46.07a38,38,0,0,1,4.38-.91c-.38.17-.76.34-.55.52-1,.24-.47-.1-.61-.19-.79.08-.34.18-.57.28s-.68.21-.59.12c-.12.12-.06.18.32.18.18,0,.36-.12.29-.12a6.94,6.94,0,0,0,1.77-.13,3.58,3.58,0,0,1-1.75.31c-1.57.3-1.43.48-2.91.66,0-.16,1-.32,1.74-.48l0-.18a11.44,11.44,0,0,1-2.33.54c-.34.08-.23.16-.27.24-.79.21-.6,0-1.18.13a15,15,0,0,1-1.72.49c0-.2.79-.42,1.71-.61,1-.35.85-.41,1.11-.66,1.1-.32.09.25,1.19-.07C208,243.61,207.86,243.52,207.57,243.58Zm-15.69,5.1c-.39.21-.57.11-1.16.27s-.82.32-1.12.4c-.77.19-1.27.19-2,.41.68-.54,2-.44,3.12-1A4.68,4.68,0,0,0,191.88,248.68Zm4-1.26c.16.08-1.28.54-1.42.44a12.36,12.36,0,0,1-2.26.79c1.43-.48.44-.4-.63-.12,1.17-.69,2.45-.56,4-1.15C195.51,247.46,195.63,247.47,195.85,247.42Zm25.85-5.49-.88.13c.16-.17.23-.34,1.16-.48C222.23,241.72,221.57,241.8,221.7,241.93Zm-.34-.74a6.8,6.8,0,0,0-1.48.1,2.57,2.57,0,0,1-.87.26c0-.09,0-.18-.31-.14C219.42,241.23,221.24,240.89,221.36,241.19Zm-3,.33c-.3.29-1.41.18-2.65.46.59.17-2,.32-2.92.65-.25-.22,1.51-.43,2.33-.6A17.42,17.42,0,0,1,218.41,241.52Zm.61.21c0,.06-.36.1-.59.15,0,.1.23.12.6.09.06.07-1.69.33-.57.27-.12.24-1,.1-1.18.12-.35,0-.84.15-1.18.17-.14,0-.18-.07-.3-.06-.44,0-1,.22-.89,0-.52.08-1.46.33-1.18.09.76-.05,1.79-.27,2.65-.34.53,0,1.07.21,1.77-.15-.53,0-1.94.25-1.78,0A25.59,25.59,0,0,0,219,241.73Zm-30.87,7.92c.19,0,.37,0,0,.12-1.19.37-3.93,1.19-5.94,1.87-1,.37-1,.23,0-.06C184.21,250.9,186.23,250.1,188.15,249.65Zm29.16-6.87c-.54.17-.32.37-1.44.53.86-.24-.8-.19.56-.4-.2-.1-1.48.24-1.19,0,1.12,0,2.49-.39,4.11-.52-.75.27.48,0,.31.19C218.33,242.82,218.5,242.55,217.31,242.78Zm-.54.68c1,0-2.09.32-2,.48-.83.05-1.23.29-2.05.3,1.07-.23,2.54-.7,3.19-.75C214.92,243.79,215.66,243.64,216.77,243.46Zm-20.43,3.34a2.86,2.86,0,0,0-.84.34c-.73.21-.38-.06-1.18.13.63-.37-.16-.28,1.09-.66.24.13-.47.31-.23.43.75-.17,1.6-.64.82-.52,0-.09.28-.11.28-.08l.58-.15c.25.12-.77.32-.53.45a12.39,12.39,0,0,1,2.59-.73c0,.19-.63.37-1.11.59A9.91,9.91,0,0,1,196.34,246.8Zm-33.21,12.11a27.45,27.45,0,0,1-3,1.4C160.54,259.85,162,259.48,163.13,258.91Zm10.38-5.52a10.74,10.74,0,0,0-2.26.74,4.77,4.77,0,0,1,1.94-.81c.06-.17,1.09-.5,1.34-.71a16.63,16.63,0,0,0-3.05,1.24c.05,0-.08-.09,0-.12a4.23,4.23,0,0,0-1,.67,1.87,1.87,0,0,1-.87.2c-.69.29-1.49.72-1.92.85-1,.52-.13-.23-1.15.29-.38.18,0,.11.31,0a18.18,18.18,0,0,1-2.19,1c.31-.22,1-.52,1.32-.74-.06,0-.29.06-.31,0-.61.28-.84.49-1.32.74.18-.31-2.16.77-2.79,1a17,17,0,0,1,1.57-.91,5.15,5.15,0,0,0-1.11.43,48.37,48.37,0,0,1,5.72-2.68c.47-.2.53-.19.59-.12.28-.14.17-.18.51-.34.58-.26.49-.06.6-.1.34-.14.43-.29.8-.44.6-.26,1.48-.45,2.27-.75,1.25-.48,2.35-1,3.63-1.41,1.13-.38,2.22-.63,3.44-1a7.43,7.43,0,0,0,.83-.36,52.17,52.17,0,0,0,5.41-1.75,6.48,6.48,0,0,0,.88-.14c-.2.18-1.77.54-1.37.68.79-.36,1.62-.68,2.22-1,1.41-.18,3.83-1.14,5.77-1.54a7.54,7.54,0,0,1,1.19-.12,11.78,11.78,0,0,1,2-.36c-.17.33-1.65.5-2.3.67l-2.59.7a2.37,2.37,0,0,0-.56.23c-.22,0-.8.11-.88.13-.35.1-1,.36-1.42.48a14.43,14.43,0,0,0-2.28.73c-.12-.15,1.1-.55-.06-.29-.42.15.13,0,0,.18a6.26,6.26,0,0,0-1.65.77c-2.24.64-3.7,1.14-5.42,1.6a7.39,7.39,0,0,0-2.16,1.15c-.72.2-1.53.45-2.55.84l-.06-.23C173.85,253.05,173.39,253.27,173.51,253.39Zm10.1-3.71a1.48,1.48,0,0,0-.6.07c.08.27.84-.15,1.73-.43-.28,0-.16-.27-.64-.17C183.52,249.48,184.52,249.29,183.61,249.68Zm-2,.53c.9-.26.72-.4,1.38-.64,0,.06.52-.08.57-.18-1,.41-.5-.07-1.46.28C182.43,249.8,181.41,250.07,181.59,250.21Zm-2,.55a7,7,0,0,0,1.76-.34c.19-.24-.44,0-.36-.2C180.29,250.41,180.39,250.52,179.58,250.76Zm-12.13,4.17c-.22.08-.33.09-.31,0-.66.32-1.41.64-1.31.81A6.45,6.45,0,0,0,167.45,254.93Zm8.43-3.05c.88-.38,2.81-.84,2.25-.8C177.78,251.15,175.19,252,175.88,251.88Zm-.74.7c.29.28,2.88-1,3.05-1.27C176.55,251.82,176.93,252.05,175.14,252.58Zm56.5,24.24c.91-.4.23-.38,1.21-.85,0,.22-1,.72-.6.81C231.79,277,231.62,277,231.64,276.82Zm-94-5.27c.21-.42,1.27-.75,2.27-1.42C140.58,269.86,138.24,271.17,137.64,271.55Zm49.82-22.32c-1.06.4-.59,0-1.45.31.35-.32,1.42-.34,1.7-.57C188.69,248.74,186.92,249.22,187.46,249.23Zm-2.11.08c-.18-.08.52-.26.53-.36a13.1,13.1,0,0,0,2-.6C187.51,248.76,186.62,248.8,185.35,249.31Zm-5.92,3.28-1.12.4c.14-.1.27-.2.24-.28l-.56.2c-.35.14-.25.22,0,.12-.29.3-1.08.34-1.41.44,0,.11.37,0,.34.13a9.61,9.61,0,0,0-2.82.9c.05-.17,1.31-.54,1.05-.66a7.14,7.14,0,0,1,.87-.18.55.55,0,0,0,.25-.21c.6-.22,1.23-.38,2.52-.89C178.85,252.67,179.6,252.36,179.43,252.59Zm77.75,47.64c-.14-.13.8-.72,1.19-.87C258.4,299.5,257.8,299.86,257.18,300.23Zm-75.91-48.84c-1.17.38-2.11.47-2.52.93-1,.44-.83.14-1.71.48a19,19,0,0,1-2.22.86,9.93,9.93,0,0,1,2.19-1C178.41,252.17,180.92,251.18,181.27,251.39Zm.55-.24c.1-.54,2.42-.82,3.62-1.43-.26.37-.15.13.61,0C185.14,250.33,183.25,250.45,181.82,251.15Zm-2.39.23c-.5.18-.57.28-1.1.46-.51-.07,1.2-.45,1.07-.57,1.35-.44,2.6-.72,4.28-1.29C184.19,250,180.21,251.07,179.43,251.38Zm-38.28,23.25a7.76,7.76,0,0,1,1.66-1.89c.16-.13.86-.53,1.22-.81a11.53,11.53,0,0,1,2.25-1.4c.51-.33.77-.57,1.2-.88l4.72-2.55a40.25,40.25,0,0,1,3.84-1.91,6.76,6.76,0,0,1-.74.49c.25.09.73-.26,1.34-.58a6,6,0,0,0,2.19-.79,12.13,12.13,0,0,0-2.5.81c1-.64,2-.9,3.14-1.59-.38.41.85-.18-.44.48a8.48,8.48,0,0,0,1.61-.69c-.12-.15-1.11.33-.95,0l1.34-.6c-1.7.85.45.22,1.15-.26,0-.1-.6.24-.82.31-.67.18,1.47-.69,2.09-1.08.2,0,.64-.22.6-.07a13.26,13.26,0,0,1,3-1.1c-1.37.65-3,1.42-3.07,1.85-.29.11-.22,0-.57.12-.78.4.3,0,.08.23-1,.41-1.24.64-2.11,1-.32,0,.56-.36,1-.59.15-.37-1.93.72-2.13,1-.82.42-.66.11-1.62.65l-.72.55c.06.12.85-.41.78-.39.35-.15.46-.09.83-.26a14,14,0,0,1,2.12-1c-2.3,1.11-4.69,2.36-7,3.57.22-.4.12-.54-.22-.56-.81.37-.72.49-1.53.86s.73-.25.37.15l-1.29.67c.21.2.91-.22,1.88-.77a36.22,36.22,0,0,1-3.78,2.23c.12-.12.23-.23.19-.3a11,11,0,0,0-1.23.81,1.55,1.55,0,0,0,.55-.17c-1,.76-2.94,1.83-4.46,2.76.25-.24.2-.29-.33,0s-.93.82-.4.52c0,.14-1,.65-1.46.94C142.2,274.56,142,274.33,141.15,274.63Zm18-10.39a5,5,0,0,0,2.14-.93C160.47,263.56,160.16,263.81,159.11,264.24Zm-4.7,2.35c.84-.26,1.16-.39,1,.06,1.38-.6.25-.52.65-.72s2.53-1,2.32-1.26c-.85.34-.6.4-1,.63A11.09,11.09,0,0,0,154.41,266.59Zm-5.29,3.18a11,11,0,0,0,1.78-1c.35-.22,1.69-.81,1.24-.79-.11-.08-1.14.58-1.34.56C150.58,269,149.67,269.27,149.12,269.77Zm.37-.61c0-.19-.6.15-1.1.4C148.22,269.88,148.83,269.54,149.49,269.16Zm-1.59,1.43a2.68,2.68,0,0,0,.94-.73,7.34,7.34,0,0,0-1,.51Zm-.69.59c.19-.16.51-.76-.4-.19C146.42,271.21,146.43,271.71,147.21,271.18Zm-3.43,2.23c-.26.16-.17.19.27-.09,0-.22-.42-.08-1.13.32C142.79,274,143.78,273.23,143.78,273.41Zm105.4-9.3c-.51.49-1.53,1.61-1.71,1.49.86-.9,1.21-1,2-2C249.47,263.71,249.12,264.05,249.18,264.11Zm-.74.45c-.74.59.7-1.13,1.06-1.33C249.38,263.55,248.51,264.18,248.44,264.56ZM253.5,257a5.69,5.69,0,0,1-1.42,3,13,13,0,0,1-.84,1.46c-.07,0,0-.12.12-.26s-.11.05-.22.18c.32-.82,2.21-2.93,1.74-3.15C253.16,257.47,253.28,257.6,253.5,257Zm-6.63,9.24c-1.09.89-1,1.17-2.1,2-.07-.12.27-.42.64-.78a7.48,7.48,0,0,0,.92-1c.37-.26,1.42-1,.87-.29.14.13.71-.91.83-.79s-.83,1-1.41,1.47C246.32,266.87,246.85,266.4,246.87,266.23Zm5.28-5.52a26,26,0,0,1-2.85,3.54,7.85,7.85,0,0,1,1.56-2.43c.45-.2-.72,1-.57,1C251,262.3,251.67,260.91,252.15,260.71Zm-43-15.93c.07.09-.48.26,0,.18-.41.27-1.3.22-1.18.06Zm34.07,24.84c.58-.53,1.17-.82,2.25-1.84,0,.18-1,.9-.76.94C244.18,269.1,243.3,269.87,243.26,269.62Zm-9.79,5.6a9,9,0,0,1,1.42-.93,10,10,0,0,1,1.84-1c.32.06-.45.27-.75.45A23.24,23.24,0,0,1,233.47,275.22ZM253.64,258c.7-1.62-.24-.36.41-1.93.12.21-.13.88.09.94-.41,1.06-.93,2.3-1.34,2.43C253.3,258.75,253.7,257.26,253.64,258ZM237.9,272.45c.49-.51,2.16-1.42,3-2.17A16.54,16.54,0,0,1,237.9,272.45Zm2.9-1.31c.66-.35.69-.54,1.43-1,0,.15-.84.68-.84.84C241.06,271.2,240.89,271.22,240.8,271.14Zm-6.31,4.21c0-.19-.44,0-1.1.4.48-.57,2.05-1.1,3-1.86.28-.07.33.06.85-.23.73-.49-.3,0-.11-.22a4.7,4.7,0,0,0,1-.56c.29-.06-.63.66.12.21a4.07,4.07,0,0,1-1.46,1c-.5.3-.25.34-.95.71-.17,0,.31-.32.7-.56,0-.13-.29,0-.33,0a13.93,13.93,0,0,1-2.38,1.78c.52-.6-.41.1-1,.51-.08-.08.26-.29.16-.36C233.69,275.67,233.72,275.82,234.49,275.35Zm8.69-6.9a14.82,14.82,0,0,0,2.19-1.83c.37-.35.48-.36.88-.72s.4-.45.81-.81a27.15,27.15,0,0,0,4.81-6c.26.26-.86,1.61-1.26,2.11a7.6,7.6,0,0,1-1.15,1.56c-.21.28-.09.3.09.08-.06.34-.86.89-.86.71a22.87,22.87,0,0,1-2.25,2.26c-.73.65-1.35,1.29-2,1.9C244,268,243.35,268.51,243.18,268.45Zm-36.58-23c.78,0-1.69.57-2.3.6C204.4,245.84,206.49,245.64,206.6,245.44Zm-3.68-.74c.56-.11,1.18-.12,1.76-.27.19.19-2,.37-1.75.33-.24.05-1.4.39-2.31.61s-1.6.3-2.32.54c-.09-.09-.52,0-1.17.18a20.85,20.85,0,0,1,3.48-.78C201.49,245.1,202.15,244.86,202.92,244.7Zm2.76.56c-.24-.14,1-.28.55-.42a1.9,1.9,0,0,1,.88-.06A3.84,3.84,0,0,1,205.68,245.26Zm1.43-.48c.83-.16-.4-.32.84-.48.39.07-.82.43,0,.3A1,1,0,0,1,207.11,244.78Zm-1.28-.71c-.88.2-1.16,0-1.76.3C203.12,244.51,206.42,243.58,205.83,244.07ZM251,246.68a5.86,5.86,0,0,0-1.34-1c.21-.29,1.15.89,1.19.48C251.48,246.64,251,246.53,251,246.68Zm-29.44-2.42c-1.53.43-3.62.52-5.23.8a27,27,0,0,1-2.88.64c-.1-.16,1.1-.29,1.73-.43s1-.3,1.43-.38a2.23,2.23,0,0,1,.59,0c.33-.05,1.13-.31,1.46-.16A14.43,14.43,0,0,1,221.53,244.26Zm-20,1.14a9,9,0,0,1,1.43-.46C203.18,245.1,202,245.39,201.52,245.4Zm-2.76,1.52a15.52,15.52,0,0,0-1.75.26c.8-.71,3.48-1.08,5.44-1.57.34-.09.23-.16.26-.24a10.44,10.44,0,0,0,2.61-.65c.91-.21.78,0,1.47-.12-.92.36-2.06.34-3.18.74a4.73,4.73,0,0,1-1.41.64c-.09-.08.26-.17.27-.25C200.79,246.23,198.69,246.43,198.76,246.92Zm5.37.08a5.63,5.63,0,0,1-2.55.79c-.31.2-2.41.81-2.31.48C200.92,247.87,203.1,247.19,204.13,247Zm56.24,57.39c-1.4.24-3.71.38-5.28.64A38.33,38.33,0,0,1,260.37,304.39ZM216.05,287.5c.12-.24,1.06-.44,1.7-.63C217.64,287.12,216.69,287.31,216.05,287.5Zm1.93-1-2.57.86C215.29,287.28,218.07,286.28,218,286.54Zm-.14.68c-.15.25-.74.33-1.42.54C216.42,287.6,217.46,287.26,217.84,287.22Zm-17.75,4.47a12.28,12.28,0,0,1-2,.55C198.29,292,199.22,291.92,200.09,291.69Zm18.46-4.15c2-.82,3-1.05,4.56-1.7-.35.39,1.27-.48.92-.1-1,.29-1.81.71-2.58.94,0,0,0-.12,0-.12-.26,0-1.12.45-1.43.52s.1.06-.22.34c-.75.07-1.51.55-2.62.79-.32.12-.14.11,0,.06-.24.27-.79.19-1.17.33-.15-.09,1.7-.73.81-.53.51-.32,1.48-.4.92-.05C218,287.87,218.79,287.63,218.55,287.54Zm5.33-3.35a15.65,15.65,0,0,1-3.06,1.32C221.34,285.05,222.81,284.76,223.88,284.19Zm-28.37,9.42c0-.17-.48-.09-.92-.05a2.09,2.09,0,0,0-.57.3c-.7.12-1.13.13-2.1.34.7-.28.11-.21.87-.46,1.18-.14,0,.08,0,.24a15.56,15.56,0,0,1,2.65-.73c-.05.34.59.05,1.8-.22,0,.27-1,.55-2.33.82C194.81,293.78,195.15,293.69,195.51,293.61Zm27.78-8.22c.28-.25,1.55-.52,2.54-1A9.6,9.6,0,0,1,223.29,285.39Zm-2.62,1.89c.09.11-1,.4-1.41.58C219.31,287.59,220.2,287.35,220.67,287.28Zm-30.83,7.54a7.76,7.76,0,0,1-1.8.46C188,295.1,189.09,295,189.84,294.82Zm-8.55.92a5.54,5.54,0,0,0,.92,0,6.75,6.75,0,0,1-1.86.29C180.45,295.9,181.19,295.87,181.29,295.74Zm43.71-12c1.9-.79,3.11-1.31,4.29-1.87s2.38-1.11,4.24-2c.89-.34-1,.55-1.6.88-2,1-5.21,2.43-7.46,3.37C224.34,284,224.66,283.89,225,283.73Zm-58,8.61a2.45,2.45,0,0,1-.37-1.32c0-.13.14,0,.26.13C167.22,292.28,166.93,292,167,292.34Zm8.4-13.84c.69-.48,1.18-.68,1.16-.5C175.83,278.42,175.37,278.7,175.38,278.5Zm-9.59,11.56a7.31,7.31,0,0,1,1.1-3.93,13.12,13.12,0,0,1,3.21-3.62,8.92,8.92,0,0,0,1-.94,3.59,3.59,0,0,1,.82-.71c0,.08-.23.24-.19.3,1.43-1,1.87-1.49,2.81-2.14-.2.49.8-.18,1.5-.54a11.89,11.89,0,0,1-3,1.84,2.55,2.55,0,0,1-.66.85l-.59.54-.3.25-.43.32c-.06,0,0-.08.11-.19s.3-.28.4-.36c.25-.21.53-.44.53-.51-.35,0-.78.66-1.1,1a8.58,8.58,0,0,0-1.05.88c-.41.39-.79.81-1,1,0,0-.06-.11-.1-.07a12.16,12.16,0,0,0-1,1.46,8.54,8.54,0,0,1-.53.71c-.3.51-.4,1-.86,1.9a8,8,0,0,0-.27.78c-.08.24-.12,0-.19,0S165.81,289,165.79,290.06Zm.4-1.63c.42-1.83,1.78-2.93,1.35-3.13a11.86,11.86,0,0,0-1.08,1.94C166.21,287.87,166.11,288.38,166.19,288.43ZM191,293.71c.14-.23,1.42-.36,2.07-.45A11.57,11.57,0,0,1,191,293.71Zm-.58.4c.6-.24,2.48-.46,3.57-.73A30.57,30.57,0,0,1,190.39,294.11Zm-8.87-17.06a8.52,8.52,0,0,1,2.19-1.09c.39-.12,0,.07-.59.33Zm-8.88,5.48a27.19,27.19,0,0,1,3.51-2.53c.58-.4,2-1.18,2.9-1.71s1.47-.75.3-.11A54.92,54.92,0,0,0,172.64,282.53ZM268,266.07c.74.35-2.26-.24-3.25-.19a5.39,5.39,0,0,1,2.36.16A2.75,2.75,0,0,0,268,266.07Zm4.33.8a32.63,32.63,0,0,0-3.48-.58C269.67,266.23,272.28,266.59,272.35,266.87Zm1.87.84c.7.16,0,.21-.07.23-.69-.14-.84-.27-1.37-.39C273.05,267.43,274.07,267.94,274.22,267.71Zm-38.53,11c.74-.49,3.13-1.94,3.94-2.32A31.25,31.25,0,0,1,235.69,278.73Zm-59.26-.25c-.06-.27.48-.74,1.25-1.24a18.25,18.25,0,0,1,2.74-1.32c.38-.21,0-.11-.33,0a10.75,10.75,0,0,1,2.58-1.11c.35-.15.1-.12,0-.06a16.29,16.29,0,0,1,3.16-1.29c.4-.26,1.63-.67,1.37-.8a42.4,42.4,0,0,0,4.09-1.39,8.1,8.1,0,0,0,1.81-.27c.69-.34-1.65.39-.66-.17.59-.2.92-.27.91-.15,2-.66,4.66-1.29,6.16-1.8.64-.17.94-.18.91,0a11.31,11.31,0,0,1,3.52-1,13.84,13.84,0,0,1,2.34-.7c.15.09-.41.2-.87.31.78,0,1.84-.48,2.66-.51.33-.08.16-.09,0-.06.28-.29.48-.05.89-.12l1.48-.29c.49-.09,1-.22,1.48-.29a6.17,6.17,0,0,1,.9-.05c.34-.07.73-.3,1.17-.4s.53,0,.9-.1.28-.12.58-.17a26.34,26.34,0,0,0,2.68-.39,2.73,2.73,0,0,0-.75.06c1.31-.32,2.75-.4,4-.58.46-.07.95-.21,1.48-.29.17,0,.67,0,1.2-.11s0-.1.29-.16c.53-.14,1.53-.16,2.09-.28a2.61,2.61,0,0,1-1.19.28c1.2-.08-.39.27.32.32a5.18,5.18,0,0,1,.59-.14c.89-.16-.29-.1,0-.25a6.76,6.76,0,0,1,1.19-.15l.9-.23c.14,0,1.37,0,1.19-.21.66-.11.43.07.9,0s.57-.12.6-.19a15.91,15.91,0,0,0,3.59-.39c.77,0,1.38,0,2.4,0,.11-.12-.23-.1-.6-.07.52-.14,1.1-.08,2.1-.25.56-.05.19-.22.61-.29a6.64,6.64,0,0,0,1.8-.32c.28,0,1-.05,1.51-.1,2.14-.27,6.32-.42,9.66-.47a6.24,6.24,0,0,1,2.13,0c.67,0,.44-.13.92-.13a67.28,67.28,0,0,1,8.56.34c-1.13.09-2.42-.21-3.69-.11-.44.2,1.08.16,1.82.19.37,0,1,.11.91.1.74,0,1.08-.08,1.56,0a24.53,24.53,0,0,0,4.62.37,40.88,40.88,0,0,1,6.77,1.23,15.81,15.81,0,0,1,3.73,1,16.31,16.31,0,0,1,4,2.25,6.19,6.19,0,0,1,2.11,1.78,11.16,11.16,0,0,1,2,3.85,12.46,12.46,0,0,1,.39,6,15.17,15.17,0,0,1-1.13,3.43,20.46,20.46,0,0,1-1.53,2.68c-1.07,1.57-2.44,2.86-3.18,3.92a14.35,14.35,0,0,0-1.82,1.78c-.38.36-.42.32-.72.59-1.28,1.14-2.82,2.56-4.34,3.89-.82.72-1.66,1.23-2.43,1.85-.49.4-.87.82-1.37,1.24s-1.16.81-1.74,1.23a27.34,27.34,0,0,1-2.45,1.83c-.24.18-.16.2-.19.29-.61.39-1.17.74-2,1.33a13.1,13.1,0,0,0-2.94,1.58c-.6.17.9-.94.48-1a9.64,9.64,0,0,0-1.78,1.17c-.37.28.11,0-.15.37-1,.63-.67.13-1.4.57-1,.53-.68.58-1.51,1.05,0-.12-.37.07-.36-.06-.92.49-.95.7-1.8,1.13-.11,0,.21-.24.19-.31a11.28,11.28,0,0,1-2.4,1.26c-.32.18-.1.14,0,0a17.07,17.07,0,0,1-3.22,1.67c-.49.3-.11.26-.78.47a8,8,0,0,0-1.53,1c-.39.13-.42,0-.9.18a6,6,0,0,1-.78.47c0,.14.53-.07.4.2-.7.35-.35.12-.32,0-.79.29-.68.42-1.35.69s-1.56.17-2,.77a1.83,1.83,0,0,0,.82-.38c.47-.15.38.1.67.09-.65.33-1.23.66-2.18,1.07.07-.18,1.51-.69,1.31-.81a17.64,17.64,0,0,0-3.53,1.78c-.94.32-2.66,1.16-2.59.82-1.07.37-.75.48-1.65.81-.53.15.16-.12.55-.29-.17-.11-1.88.46-1-.12a8.93,8.93,0,0,0-2,.74,10.08,10.08,0,0,0,1.45-.41c-.43.25.54.16-.75.66s.28-.2-.07-.23c-.95.37-1.17.66-1.7.64-.83.36.31,0,.07.23-.57.1-1.88.68-2.86,1-.58.1.44-.41-.65-.1a2.21,2.21,0,0,0-.83.41c.09.06.86-.27.89-.17.34.09-.87.39-1.41.6.32.13,1.17-.35,2-.62-.4.46-1.94.73-3.42,1.27.08-.11.48-.26.53-.36a5.31,5.31,0,0,1-2.65.53,5.59,5.59,0,0,1-.57.23c.48.06,1.31-.07,1.57.1-.65.15-1.19.23-1.23.05a3.48,3.48,0,0,0-1.41.61c-.4.08-.57,0-.63-.06a8.55,8.55,0,0,1-1.73.57c-.45.12-1.18.29-1.19.2-1.07.33.16.15-.53.45l.88-.23c-.28.19-2.13.6-1.79.28-1.3.38-1.77.38-2.94.7.72-.06,3.14-.68,2.4-.25-.82.22-.71,0-1.49.2-.24.07-.28.14-.58.21,0,.12.38,0,.33.16a8.91,8.91,0,0,0,1.17-.36c.55,0-1.79.59-2.35.6,0-.09.34-.21.26-.31a12.49,12.49,0,0,1-3.56.68c-.56.23.27.14.63.16-1.61.53-3.1.37-5.06.92-.91.21-.38-.14-1.5.15-1,.13-.6.27-1.17.4a28.26,28.26,0,0,1-3.31.34,2.55,2.55,0,0,1-.89.25c-.4.12-.38.26-.88.38.33,0,.26.08-.3.16-.09-.17.82-.49-.32-.38-.77.13.42.05,0,.24a20.48,20.48,0,0,1-3.12.4,6.68,6.68,0,0,1-2.41-.49,5.51,5.51,0,0,1-1.57-.93,4.52,4.52,0,0,1-1.44-2.3c-.2-1.13-.16-1-.24-1.05s-.06-.06-.06-.31a3.81,3.81,0,0,1,.32-1.33c.45-1,.53-.95.48-.86s-.18.45-.09.31a8.41,8.41,0,0,1,.62-.82c.23-.27.44-.43.46-.34.6-.68.67-.75.65-.82s-.15-.05.09-.35.54-.38.85-.57l.82-.5c.53-.34,1-.68,1.45-1,.64-.23.05.2-.14.44a28,28,0,0,0,2.7-1.59c-.16.32.28.15-.68.78a6.13,6.13,0,0,0,1.11-.53c.61-.32,0-.29.14-.47.85-.43.59-.55,1.61-1,.32-.17.19-.22.21-.3,1.86-.79,3.55-1.59,5.14-2.15.28-.11.2-.15.25-.22,1.21-.44,2.08-.82,2.88-1.07.06,0,0,.12,0,.12.26,0,1.13-.43,1.45-.5s.16-.19.55-.31c.31-.31-.95.27-.64,0,1.27-.6.8.1,2.35-.64.11.07-.25.18-.25.26.92-.2,1.57-.68,2-.63.34-.11.23-.18.26-.26,1.75-.42,2.81-.81,4.36-1.31-.06.1-.87.26-.86.36.41.08,3.16-1.1,1.14-.5a12.85,12.85,0,0,1,2-.6c-.1.15.22.1.33.16.33-.1.15-.11,0-.06.66-.39,2.87-.53,3.2-.94.92-.25.69,0,1.78-.3.12-.16-.44,0-.9.09a7.93,7.93,0,0,1,2.06-.43c.51-.13-.41-.12.86-.38.63-.17.57,0,.61.05,1-.18,1.83-.56,2.93-.83.17,0,.36,0,.6-.06a3.25,3.25,0,0,0,.58-.19c.73-.14,2-.37,3.26-.65l2.08-.38a8.88,8.88,0,0,1,2.08-.37,5,5,0,0,0,1.19-.15,2.24,2.24,0,0,0,.29-.17c.11,0,2.11-.05,2.38-.44l3.58-.6c.35-.05,1.29-.23,1.2-.22.39,0,.47.06.9,0,.95-.12.81-.31,1.5-.2l.89-.28c4.43-.58,8.75-1,12.64-1.44a2.12,2.12,0,0,1,.6.14,71.85,71.85,0,0,1,8.84-.73c.81,0,.26-.23,1.25-.18-.16.18.36.24.9.3.25-.18-.84-.12-.59-.3.77,0,1.5,0,1.54.13.42,0,.59-.11.64-.22,2.17,0,2.91.09,5.32.28-.9.2-.85.25-1.05.58.66.07.61,0,.65-.13a2.18,2.18,0,0,1,1.19.47c1.54,0,2.86.44,3.76.35.7.08.41.18.9.27.34.05.24-.08.66,0,1.09.15,1.18.31,2.2.51.15.17.41.32,1.55.6.81,0-2.62-.78-.59-.35a13.14,13.14,0,0,1,1.3.38c.82.23,1,.24,1.37.36a13.63,13.63,0,0,1,1.29.62,13.81,13.81,0,0,1,4,2.72A8.84,8.84,0,0,1,302.4,308c.17.55.22.38.31.45a11.84,11.84,0,0,1,0,4.24,21.42,21.42,0,0,1-1.05,3.52,12,12,0,0,1-1,1.57,8.25,8.25,0,0,0-.5,1c-.24.35-.36.32-.5.48s-.92,1.3-1,1.38a13.11,13.11,0,0,1-1.26,1.52c.12,0,.58-.54.91-.92s0,.16-.54.71l-1.37,1.44c.4-.64-.76.52,0-.46-.31.09-.29.55-1,1.18-.2.42.71-.41.16.18-.85.91,0-.14-.55.32s-.17.39-.32.58-1.25,1.09-.83,1a38,38,0,0,1-3.27,2.9c0-.25-.66.25-.21-.29-.49.35-1.32,1-2.15,1.73s-1.71,1.36-2.19,1.79c-.2.18-.18.22-.18.29a31.87,31.87,0,0,1-3.13,2.25c-1,.67-1.87,1.28-2.41,1.73-1.16.67-2.93,1.65-2.83,1.92-.75.38-1.37.85-2.13,1.29-.51.3-1.22.61-1.64.86s-.58.45-.77.55c-1.07.63-2.44,1.29-3.56,1.89-1,.47-2.73,1.23-4.2,2-1,.45-1.62.83-2.53,1.22s-2.1.82-3.16,1.28c.16-.25-.36-.11-.39-.25,1.11-.34.58-.44,1.4-.75-.32-.06-.89.41-1.75.62.68-.44.81-.85-.45-.53-.17,0-.61.33-.84.42s-.81.29-1.38.49-1.23.37-1.82.57a17.23,17.23,0,0,1-2.63.87,46.4,46.4,0,0,1-5.61,1.67c-.6.16-.87.33-1.48.5a37.62,37.62,0,0,1-5.14.92c.14-.26-.79-.12-.94-.27-1.68.18-1.86-.23-3.36-.15.6-.29,0-.23-.91-.18,1.09-.44-.8-.32-.92-.55.48,0,.51-.12.89-.17a4.85,4.85,0,0,0-1.19.09c.71-.24.12-.21.88-.42.11-.11-.23-.08-.59,0,.39-.09.21-.2.58-.32.09,0,.54-.05.6-.08.3-.13-.17-.25.29-.33.19,0,.34,0,.59,0a3,3,0,0,0,1.17-.45c1-.08,1.13-.25,2.06-.38.34-.07.24-.15.28-.23.72,0,1.78-.14,2.8-.26a15.93,15.93,0,0,1,2.52-.26l2.34-.51c.05-.38-1-.29-1.28-.52,1.92-.47-.24-.33.51-.66.38-.08.76-.19,1.14-.29,0-.14-.52,0-.34-.28l3.14-.76a2.34,2.34,0,0,0,1.19-.08c1-.32-.06-.15.52-.35l1.13-.35,0,.24c1.1-.41,2-.43,2.24-.76,0-.08-1.65.63-1.44.26,2.9-.91,5.76-2,8.57-3.13.36-.17.4-.28.78-.45,0-.13-.52,0-.38-.23a24.06,24.06,0,0,1,2.64-1.31c.21-.29-.63.17-1.11.37-.86.34.45-.29.78-.42,1.89-.73,4.84-2.54,5.59-2.53a8.79,8.79,0,0,1,2-1.3c0,.11-.75.45-.71.54s.28-.09.3,0c.59-.38,1.15-.75,1.17-.94a46.7,46.7,0,0,0,4.49-2.74c-1.18.95,1.12-.53,1.22-.81l2.36-1.63c.79-.55,1.51-1.14,2.13-1.63,3.32-2.65,7.57-6.16,9.41-8.68.39-.35.11.05.12.13.23-.25.37-.37.45-.38.57-.61.41-.59.89-1.15.33-.38.86-.82,1.16-1.22s.33-.68.71-1.21.49-.7.58-.58a10.6,10.6,0,0,1,.67-1.74c0,.09-.16.49-.1.53a6.09,6.09,0,0,0,.65-1.65c0-.08.2-.41.21-.45a4.17,4.17,0,0,0-.34-2.49,5.83,5.83,0,0,0-1.28-1.68,1.2,1.2,0,0,0-.51-.19c-.58-.8-2.41-1.52-3.77-1.89l.07-.16a5.12,5.12,0,0,0-1.69-.3c-.82-.27.37-.08.35-.16a9.65,9.65,0,0,0-2-.28,18.57,18.57,0,0,0-4-.52l-1.14-.25c-4.14-.18-9-.14-13.78-.06-.71.08-1.43.18-2.06.28-1.18,0-2.11,0-3.54.1v-.24a16.18,16.18,0,0,1-3.84.42,8.71,8.71,0,0,1,2.06-.17,7.94,7.94,0,0,1,1.78-.37,4.36,4.36,0,0,0-1.18,0c1-.17.44-.4.89-.54a35.54,35.54,0,0,1,4.15-.5c.57,0,1.28,0,1.18.12l1.19-.16c-.06-.11-.5-.12-1.18-.08a21,21,0,0,1,3.56-.11c-.34.2-.15.16.28.29a5.56,5.56,0,0,1,1.78-.07c0-.07.07-.11.3-.12-.05-.2-2.44.11-2.06-.17a33.14,33.14,0,0,1,3.56.06c1.11,0,0-.21.62-.29a16.8,16.8,0,0,1-2.38,0c.05-.12.22-.2.62-.24a2.3,2.3,0,0,0-.88-.18c-1.09.12.51.16.27.3-.63,0-.57.09-.61.18-.91.05-1.07-.05-1.77,0a4.67,4.67,0,0,1,1.19-.09c-.44-.26-1.6.06-2.09.17a10.08,10.08,0,0,1-2.07-.17c-.61.06-.1.31-1.2.3a2.09,2.09,0,0,1-.88-.26c-.4.08-.39.23-.9.29-2.79.21-6.51.42-10.08.82-.68.05-.33.2-.88.27a4,4,0,0,0,1.18,0c-.8.28.34.34.6.48l-.59.06-.59.06c.42-.23.24-.37-.89-.27-.22.21,1,0,.59.24a8.84,8.84,0,0,0-2.94.39,10.91,10.91,0,0,0,1.76-.2c1.15-.1,1.76,0,2.66,0-.41.12-1.05.43,0,.36-1,.18-1.89.37-2.64.58s-.6-.05-1.18,0c-.81,0-1.49.23-2.34.34-.48.07-.51,0-.89.06-1,.14-1.75.31-2.63.42-1.77.19-5.4.8-7.29,1.15-.54.09-1.46.09-1.74.37-.79.19-.6,0-1.18.09s-.54.15-.57.23c-.92.23-.41-.12-1.18.05a19.86,19.86,0,0,1-2.32.46c-.33.08-.23.16-.26.24a25.84,25.84,0,0,0-3.77.69,2.17,2.17,0,0,0-.55.31c-3.19.68-11,2.63-16.23,4.41-.79.28-1.36.54-2.2.86a51.33,51.33,0,0,0-4.9,1.88c1.4-.5,1-.22-.49.39.44-.17-.95.37-2.69,1.16s-3.78,1.88-4.82,2.5c-.41.25-.45.19-.77.38s-1.08.75-1.65,1.1a6.63,6.63,0,0,0-.89.64,1,1,0,0,0-.25.43v0a0,0,0,0,0,0,0h0l-.07,0-.26-.09-.23,0a.38.38,0,0,0-.15,0h-.06l.07,0,.16-.08a2.09,2.09,0,0,0,.21-.23l.08-.12h0v0c.05,0,.35,0,.69,0a3.5,3.5,0,0,0,.65.07,5.82,5.82,0,0,0,1-.14c.37-.08.77-.17,1.18-.23.74-.12,3.89-.51,4.93-.74.32-.08.27-.21.86-.28.09.08-.27.15-.28.23.52-.09.61-.18,1.15-.27,0-.08-.07-.1-.3-.07.11-.19.91-.17.59,0a10.06,10.06,0,0,1,1.73-.38c.22,0,1.57-.41,2-.52s1.1-.17,1.73-.32l2.78-.66,2.63-.69c.73-.17,1.54-.51,2.25-.7.46-.12.5-.08.86-.16.85-.22,1.61-.56,2.24-.73s1.05-.2,1.43-.3c.53-.13,1.34-.33,1.7-.44s.7-.36.81-.4c.46-.16.48-.1.85-.22s.57-.26,1.1-.43,1.13-.31,1.68-.5a41.14,41.14,0,0,1,4.39-1.68,7.81,7.81,0,0,1,1.37-.66l2.38-1c.39-.16,1-.33,1.37-.51,1.46-.6,2.88-1.33,4.27-2l3.93-1.91a7.2,7.2,0,0,0,1.59-.73c-.07-.05-.49.19-.8.34.52-.39,2.94-1.64,2.91-1.36.11-.24.6-.41,1.49-1a14.34,14.34,0,0,1,2.25-1.38c.17.05-.32.31-.72.53.18,0,.69-.13-.18.31.25.07.53-.36,1-.57-.18.16-.22.28-.16.36a10.48,10.48,0,0,0,1.25-.79c-.18.4.9-.19,1.33-.59-.41,0-1.49.64-1.71.47a10.61,10.61,0,0,0,1.14-1c.4-.15.48,0,.89-.18.72-.45.47-.62-.36-.07a2.59,2.59,0,0,1,1.89-.79c.41-.38,1.4-1,1-1.15a2.63,2.63,0,0,0,.71-.53c.55-.23,1.64-1,1.85-.86-.63.43-1.22.82-1.07.48l-1.22.8c-.09.34,1.21-.71,1.12-.37a4.23,4.23,0,0,1-1.25.75c.17.13,1.17-.56,1.39-.49.76-.49,1-.91,1.69-1.18.12.25-1.55,1.55-1.18,1.5-.52.47-1.34.84-2.2,1.5.37-.36-.05-.06-.11-.22-1.19.7-.29.65-1.6,1.39-.64.39-.32.15-.3,0-.58.3-.31.32-.71.56a22.32,22.32,0,0,1-2.08,1.09c-.81.56.6-.16.39.13-.2,0-1.22.69-1.34.61-.61.36.35,0,.59-.12-.6.44-1.86,1-2.54,1.54.57-.08.87-.6,1.53-.91.17.06,1.21-.49.64,0,1.21-.59,1-.69,2-1.27.89-.52.27,0,1.29-.71.48-.34.74-.57,1.22-.88a18.17,18.17,0,0,0,1.85-.91c.81-.61-.7.42-.33,0,.85-.78,3.14-1.94,3.4-2.38a7.26,7.26,0,0,0,1.77-1.05c-.24.59-1.43.81-1.93,1.38.48-.18,1-.43,1.6-.69s1.11-.57,1.63-.81c.75-.79-.8.18-1.39.55,0-.25,1.86-1.35,1.26-1.35a1.94,1.94,0,0,1,.78-.41,25.75,25.75,0,0,1,2.56-2c0,.15-1,.82-.84.87.55-.31,1.14-.72,1.73-1.11s.36-.54.27-.67a15.64,15.64,0,0,1,1.9-1.41c.22.18-1.06.74-1.33,1.19.8-.29,1.32-1.09,2.12-1.6,0-.11-.35.13-.36,0l2-1.72c.78-.49-1.63,1.35-1.24,1.3.62-.35,1.57-1.46,2.44-2.16-1.33.87,1.2-1.13,1.91-1.86.69-.5-1.07,1.06-1.5,1.42.5-.06,1.75-1.47,2.18-2a9.64,9.64,0,0,0,2.66-2.7c-.34.22-1.36,1.5-2,2.09-.11-.06.72-.75,1-1.09a7.76,7.76,0,0,0,1.59-2.06,11.83,11.83,0,0,0,2.42-4.09c.08-.29,0-.23.05-.57.16-.7.27-.86.42-.74a21.57,21.57,0,0,0,.11-2.42,5.37,5.37,0,0,0-.49-2.19c-.09-.55.15.08.33.19-.18-.42-.11-.47-.28-.8s-.32-.26-.16.07a12.29,12.29,0,0,0-2-2.25c-.08,0-.15.1.08.31a9.93,9.93,0,0,0-2.07-1.32c.59.17.28-.24-.32-.56.26-.07.52.31,1,.53.11-.08-.09-.29-.66-.56-1.18-.49,0,.33-.73.13a11,11,0,0,0-2.94-1.14l.06-.17c-1.42-.36-1.89-.24-3.49-.56.45-.08-.44-.21-.54-.27s.25-.21-.53-.33c-1,0,1,.35.48.51-1.16-.15-.78-.36-2-.48-.41,0-.05.1.27.15a9.52,9.52,0,0,1-2-.32c-.72-.08-1.64-.07-2.38-.11a14.27,14.27,0,0,0-2.06-.16c-.07-.1.29-.08.32-.16a10.59,10.59,0,0,1-1.78,0c-.08-.14.86,0,.91-.13-1.1-.12-.87.1-1.79,0,.16.17,1.21.21,1.13.42-.22,0-1,0-1.18-.06s.46-.07.31-.11a13.23,13.23,0,0,0-2.92-.39c-.82,0,.88.15,0,.24s-1.53-.11-2.36-.15l0-.18a7.72,7.72,0,0,0-1.19,0c-1.05,0-1.09-.2-1.79.08.62.05,1.93.18.28.23.5.13,2.26,0,3.26.05.09.2-1.34.11-2.09.12l-2.66.05,0-.3c-1.24,0-1.62.16-1.21.33l-1.77.07c.11-.09.52-.12.6-.21-1.36.09-1.84,0-3.26.09.06-.05.3-.07.3-.13-2.29,0-3.55.21-5.64.3a6,6,0,0,1-2.66.45c.09.22,1.67-.21,2.36-.07-.5.17-2.25.2-3.25.33-.11-.1.23-.14.59-.17-1,0,.05-.23-.59-.25-1.38.06.41.12-.59.23-1.34.19-.66-.21-2.07,0-.57.06.46.18-.29.33-.71-.09-2.52.38-1.78.06a40.78,40.78,0,0,1-4.13.54c-.41.34,1.24,0,2.07-.07-.23.27-1.28.18-2.06.31a17.67,17.67,0,0,1-1.76.35c-.3-.16.4-.25,1.17-.33-.05-.13-.75,0-1.48.07.15-.18.38-.27-.31-.26-.39.08.37.21-.57.38-.31.19,1.28,0,.31.26-.75.1-.36,0-.3-.08-1.52.27-1.91.29-3.53.5-.06-.29,1.5-.13,1.46-.39a8.88,8.88,0,0,0-1.77.14c-.65.09,0,.2,0,.18-.25.24-1.05.12-.86.37a21.59,21.59,0,0,1-2.64.43c-.64.31-3.32.64-5.53,1.11a12.05,12.05,0,0,1-2.34.4c-.31.07-.18.15-.56.23-3.75.71-5.88,1.41-9,2-.31.1-.18.17-.56.27-.68.2-.64.05-1.43.31-.35-.14.56-.35.8-.52a8.45,8.45,0,0,0,2.61-.53c-.2-.14-1.06.24-1.75.31-.16,0-.19-.12-.31-.11-.51.07-1.14.27-1.74.4-.31.28.94-.21.62.08s-2.13.79-.8.53c-.13.1-2.54.86-2.29.58-1.37.61-3.54,1.14-5.88,2a59.82,59.82,0,0,0-7.53,3.31c-.7.39-.58.14-1.09.41a12.68,12.68,0,0,1-1.29.69c-.41.24-.31.4-1.22.84-.56.1.38-.36.68-.61a3.73,3.73,0,0,1,.44-.45c.32-.21,1.52-.62,1.27-.75s-.35.24-.78.42c-.11.05-.3-.18-1.11.39-.05.18,1.17-.66.85-.25-1.18.72-2.79,1.43-3.84,2.16.12.17,1.64-1,2.08-1.09s-.46.49-.34.62c-2.4,1.58-4.55,3.08-5.92,4.16a13.38,13.38,0,0,0-1.26,1.8,4.11,4.11,0,0,0-.65,2.21c.38.08.3-.38.47-1,.09,0,.06.26.08.5s.09.49.2.53c.29-.11-.13-.59-.06-.85a4.48,4.48,0,0,1,1.11-2.05c.13-.18,0-.16.15-.37a3.89,3.89,0,0,1,1.2-.95c.34-.32-.27.1,0-.26.16-.1.3-.2.47-.33l.6-.47,1.23-.92a19.56,19.56,0,0,1,2.54-1.61c-.59.58,1.45-.68,1.64-.56.67-.36-.38-.18.66-.63a2.45,2.45,0,0,0-.78.36c-.82.42.4-.34.73-.47a16.74,16.74,0,0,0,1.87-.78c.2-.3-.62.18-1.08.42,0-.2.74-.45,1.28-.71a38.08,38.08,0,0,1,4.23-2c.16.07-.36.26-.78.44.58.07,1.52-.63,1.86-.88,2.21-.83,2.48-.64,4.46-1.36.17-.3-1.33.37-2,.55,2-1,4.91-1.61,6.7-2.19.2-.07.5-.26.54-.27.43-.13,0,.13,0,.11.56-.15,1.18-.44,1.69-.58,1.1-.28,1.42-.15,2.31-.4.34-.09.23-.17.26-.25a67.15,67.15,0,0,1,6.93-1.48c.35-.08.12-.1,0-.06a23.57,23.57,0,0,1,4.36-.8c.61-.17,1.28-.33,1.73-.5,2.34-.4,5.57-.81,8.2-1,.42.22,1.27.18,1.2.43,2.51-.42,3.69-.5,6.14-.79a2.16,2.16,0,0,0,.58-.25,8.11,8.11,0,0,1,1.47-.1c.7-.09-.33-.13-.59-.12-1.34.08-1.62.44-2.64.37a13.92,13.92,0,0,1,2.64-.49,1.4,1.4,0,0,0-.59-.06c.17-.12.45-.06.58-.06s.77,0,.6.18l1.17-.13a5.48,5.48,0,0,1,.88,0,7.67,7.67,0,0,1,1.47-.26c.09.21,1.64,0,1.77.2.89-.15-.43-.19.29-.32.91-.12,1.42-.05.88.1.72-.24,2.17,0,2.06-.34s-1.38.29-1.47.11c-.31-.18,1.27-.19,1.77-.25.25,0,.75-.17.88-.19a26.75,26.75,0,0,1,4.71-.16c.79-.13,2.1-.06,3.24-.14.7-.05,1.36-.17,1.78-.23-1.29-.14-2.33.15-3.54.12a10.55,10.55,0,0,1,2.67-.28c.93,0,2.12.07,3.53,0,.24.19-.78.13-.9.25.9-.07,1.45-.2,2.37-.26a17.49,17.49,0,0,0,2.62.16c.11-.16-1.64,0-1.15-.2a9,9,0,0,0,2.36-.07,9,9,0,0,1,2,.39c.44,0,1.14,0,.91-.19.78,0,1.23.27,1.18,0a5.86,5.86,0,0,1,1.7.44c.8,0-.76-.18-.24-.32,2,.38,3.69.36,5.49.73a2.78,2.78,0,0,1,.89,0c-.83.12.63.21.77.44.37-.06,2.32.3,1.76.06.34-.13.53.19.81.26.78.15-.34-.26.35-.15,2.62.75,4.79,1.75,6,3.2.26.3.2.38.39.62a5,5,0,0,1,.92,1.73,2.07,2.07,0,0,1,.08,1,8,8,0,0,1-.12,3,9.84,9.84,0,0,1-1.58,3.52,7.92,7.92,0,0,1-2,2c-.12-.25-.31-.3-.89.28,0-.13.23-.45.64-.91-.47.36.07-.79-.87.27.58-.73.33-.86.54-1.3.09-.19.65-.79.37-.68a10.44,10.44,0,0,0,1.81-3.16,7,7,0,0,0,.31-3.12,2.72,2.72,0,0,0-.88-2.06,3.37,3.37,0,0,0-.47-.57c-.51-.46-1-.52-1.37-1-.22-.11-.19,0-.46-.11a16.75,16.75,0,0,0-1.79-.73,4.54,4.54,0,0,1-.45-.21l-.25-.13a6.47,6.47,0,0,0-.8-.1c-.62-.12-1.28-.38-1.84-.47s-.65,0-1.13-.09c-.91-.11-1.81-.28-2.81-.49-.47-.09-.54,0-.59.05a50.18,50.18,0,0,0-6.58-.58c-.54-.11.54-.22-.53-.32-.89,0,.39.24-.33.28-2.25-.11-3-.13-5.22-.11a2,2,0,0,1,.89-.11,2.17,2.17,0,0,0-1.11,0c-.24.07-.37.17-.36.19-1.36.05.41-.16-.57-.18-.62,0-.56.09-.6.19l-2,0c-.47-.1,0-.07,0-.24l-.88,0c-.61.06,1.07.21-.6.26-1.19.05.06-.09-.28-.23-.8,0-.58-.08-1.17,0s-.13.26-.31.37l-2,.1c.22-.06.31-.15.29-.25-.37.09-1.54.09-1.17.3a8.36,8.36,0,0,1-2.93-.06c-.56,0-1.35.39-1.47.1-.8.12.68.19-.88.25a1.35,1.35,0,0,0,.59.07c-.16,0-2.67.4-2.05,0-.89.08-.7.28-1.76.34v-.18c-.18.11-.88.17-1.17.29a4.2,4.2,0,0,1-1.46-.1c0,.27-2.17.38-2.62.46a3.6,3.6,0,0,0,.87,0c-1.58.35-3.6.35-5.54.66a5.89,5.89,0,0,0-2.06-.27c-.9.08-.55.24-1.45.33.87.09-.9.4.31.32-.35.18-2.07.28-1.43.51-3.37.66-7.9,1.26-11,2,.15-.26,1.72-.44,2.87-.67s2.2-.38,2.89-.57A11.32,11.32,0,0,1,216,272c-1.17.17-.69.38-1.71.56v-.12a17.61,17.61,0,0,1-2.91.37c-.31.08-.18.16-.56.24l-2,.41c-.71.07-.19-.08-.6-.06-1.14.23.1.08-.55.3s-1.8.34-1.41.5c-1.76.25-4.29,1-5.68,1.29.92-.38,3.1-.79,4.52-1.16.32-.16.81-.33.82-.49-.75.15-1.23.3-1.12.44-1.1.14-1.88.48-3.4.82.33-.16.09-.12,0-.18-2.41.69-4.73,1.34-7.78,2.36-.69.15.45-.34-.33-.14-1.18.4.46.17-1.31.7-.6,0,.31-.44,1-.73-.25-.15-1.83.53-1.33.64-.53.15-1,.4-.52.25a74.32,74.32,0,0,0-8.83,3.83c-.74.39-1.49.79-2.19,1.22s-1.4.85-2,1.29-1.27.89-1.86,1.32q-.45.33-.84.66l-.41.36c-.11.1,0,.09,0,0a5.42,5.42,0,0,0-.88,1c-.28,0,.19-.37-.2-.16s-.37.46-.46.55c-.26.31.23-.43.25-.61a3.23,3.23,0,0,0-1,1.48c.35.09.58.58,1.1.77.18.25.5.38.28.54.4,0,.73.1,1.16.16l.72.08.43,0h.78c.22.05.3.13.27.24.6,0,.55-.09.58-.18a43.6,43.6,0,0,0,4.56-.22c2.54-.22,5-.43,7.16-.76a13.92,13.92,0,0,1,2.58-.41c.38-.1.44-.2.85-.3a7.22,7.22,0,0,1,1.45-.12c2.17-.7,5.23-1.19,8.86-2.21.72,0-.41.23-.24.37,1.37-.37,1-.66,2.79-1.06-.23.17-.76.36-.5.51,1-.25,1.05-.54,2-.62-.15.18-1.31.42-1.38.58.7,0,1.43-.62,2.81-.93.12.13-.35.31-1.1.51.58,0,1-.39,1.69-.56.1.11,1.25-.35,1.44-.31a12.18,12.18,0,0,1,2.46-1.08c-.27.16-.23.3-.5.47-.5.16-.61.11-1.14.29-.09.32,1.64-.33,2.28-.6.11.15-.59.4-.48.54.42-.2.65-.4,1.06-.61a3.17,3.17,0,0,1,1.46-.23c-1.32.49-4.4,1.7-5.63,1.75-.64.23.36,0-.25.26a37.26,37.26,0,0,1-3.7,1c-.28.08-.21.14-.27.2a27.62,27.62,0,0,0-4,1.13,33.58,33.58,0,0,0-4.88,1.26,17.54,17.54,0,0,0-2.62.4c0,.24,1.2,0,1.77-.08-.34.32-.6.12-1.44.32-.63.13-.11.24-.25.36a11,11,0,0,0,3.13-1c3.64-.82,5.7-1.46,8.34-2.08-.69.26-.5.47-1.37.74.15.1,1.52-.41,1.74-.35.08-.15-.09-.17-.6,0,0-.2,1.4-.48,2.26-.76,0,.08-.09.26.33.15,1.05-.25.07-.33,1.39-.59-.46.34-.48.29.35.21.47-.18.15-.19-.31,0,0-.1.84-.27.83-.37.69-.11,1.37-.26.92.09,1.17-.34,1.11-.55,2.52-.93,1.11-.39.93,0,2-.43.78-.34,1.62-.72,1-.73,1.55-.56,2.28-.94,2.15-1.1.78-.34.75-.18,1.4-.47.17.07-.35.28-.79.44.07.17.69,0,1.19-.14a7.32,7.32,0,0,1,1.94-.76c.39,0-.89.4-.49.45.05.13.75-.32.52-.33.91-.37,1.33-.67,2.45-1.1,0-.17-.12-.2-.37-.17a13.12,13.12,0,0,1-1.89.87c.08-.35-1.54.39-1.52.08.79-.29,1.73-.66,2.72-1.1s2.06-.88,3.09-1.37c2.09-.95,4.1-2,5.48-2.65.07.26-.58.4-1,.61-2.21,1.14-5.66,2.8-8,3.74a15.08,15.08,0,0,1,2.55-.76c.93-.38.26-.39,1.28-.79.58-.31.42-.07.85-.26a1.18,1.18,0,0,0,.76-.49c.12-.06.37-.12.55-.21a2.51,2.51,0,0,0,.51-.32,23.32,23.32,0,0,0,3.41-1.78c.43-.27.5-.23.56-.18.76-.46-.3,0-.1-.22.65-.37.69-.22,1.11-.41s0-.26.13-.42c2-1.22,3.76-2.47,5.39-3.61.26-.19.41-.16.53-.24.27-.18,1-.8,1.4-1.1a7.28,7.28,0,0,0,1.34-1.15c.21-.1.64-.47.75-.45,1-1.07,3.68-3.14,5-4.93.31-.05-.42.65-.42.82l-1,1c-.3.32-.61.63-1,1.05s0,.34-.76.93a9.35,9.35,0,0,0,1.87-1.9c.32-.09,1.35-1.42,1.37-1.09.29-.45-.37,0,.15-.7s.54-.52,1-1.08c0-.35-.5.43-.83.81a5.75,5.75,0,0,1,.7-1.06l.94-1.35c.44-.68.89-1.38,1.22-1.95.09-.15.23-.31.33-.45l.18-.24c.15-.31.08-.41.15-.57a4.44,4.44,0,0,0,.62-1.6c.15-.45.21-.48.29-.48a10.92,10.92,0,0,0,.32-1.67,1.77,1.77,0,0,1-.15,1.13c.19-.14.35-.79.5-1,.15-.65.14-1.33-.06-1.17a3.43,3.43,0,0,0,.13-.86c0-.35,0-.66-.13-.53a1.63,1.63,0,0,0,0,.73,6.61,6.61,0,0,1-.1,1.2,13.13,13.13,0,0,1,0-1.39c-.17.15-.24,1.44-.47,1.56a4.41,4.41,0,0,1-.67,2.06c-.1-.17.59-1,.33-1.32-.07,0-.19.49-.14.52-.39.77,0-1.31-.57.63-.12-.12.08-.6.25-1.11s.3-1,.14-1.21c-.1.46-.25.82-.36,1.21s-.31.84-.54,1.45.26-.25.27.13c-.3.61-.47.52-.73.82a4.73,4.73,0,0,1-.73,1.42c.22-1,1.24-2.5,1.49-4.16.09.14-.16.78.1.57.29-.94-.14-.48.15-1.52-.07-.05-.1,0-.15.22,0-.41,0-.85-.05-1.21s-.17-.61-.31-.68a5.11,5.11,0,0,1,0-1.07,4.91,4.91,0,0,0-.3-1,8.59,8.59,0,0,1-.45-.91q.17-.15.42.51c.11-.75-1.21-2-1-2.25-.72-.68-.22.25,0,.6-.07.1-.51-.59-.8-.79.63.35-.05-.43,0-.61a27.28,27.28,0,0,0-3.13-1.61c-.64-.26-.39-.32-.62-.48s-.27-.05-.51-.15c-.53-.12.63.42-.35.13-.53-.17-.43-.25-.41-.35-.79-.18-1.43-.26-2.61-.54a6.74,6.74,0,0,0-1.82-.44c0,.08.48.11.79.18a43.43,43.43,0,0,0-5.5-.31c-.57-.06-.21-.32-1.1-.3-.42,0,.11.08,0,.19a38.22,38.22,0,0,0-4.57.31c0-.17-.36-.25-1.45-.1.19,0,.67,0,.58.12-.56.13-.45-.07-.58-.06a12.88,12.88,0,0,1-2,.22,20.65,20.65,0,0,1,3.49-.48c.68-.07.54-.25,1.44-.29-.88.28,2.1-.09,2.58,0l.86-.2c.72,0,.7.24,1.1.36.86-.16,1,.15,2.22.15.44-.34-1.68-.34-.76-.59.72.14,1.38.31,1.32.57,1.17.16,1.28,0,.59-.19.19-.08.64,0,.53.12a7.82,7.82,0,0,1,1.86.41c.5.13.46-.19-.22-.22.4-.12,1.14.34,1.6.29.1-.08-.22-.16-.21-.24-.46-.05-1.69-.38-1.64-.16-1.09-.11-.78-.31-1.89-.38-.13-.15.54,0,.59-.11s-.51,0-.57,0c-.35,0-.43-.17-.81-.2s-.76.07-1.43,0c-.38,0-.25.14-.31.23a10.57,10.57,0,0,1-2-.26,1.84,1.84,0,0,0-1.15.27,14.06,14.06,0,0,1-1.43-.3,24.5,24.5,0,0,1-3.76.61c.27-.25-1.15,0-1.76.06-.9.15-.57.4-2,.5a5.09,5.09,0,0,1,.87-.23c-.08-.13-1.28.12-1.46.18.24,0,.35.08.59.11.82.08,1.39-.11.89.13.87-.11,1.75-.22,2.62-.3a21.27,21.27,0,0,1-3.21.43c-1,.17-2.84.38-4.66.6.2-.22-.31-.18-.31-.32-1.53.15-2.2.36-3.5.47a2.21,2.21,0,0,1,1.15-.42c-.85-.06-1.27.41-2,.55-1,.19-.73-.1-1.76.11-.55.11.09.25.89,0-.57.4-1,.09-1.76.19-1.16.28-.34.27-.83.52-1.15.17.32-.33-.9-.15-.15.18-1.47.32-1.13.51-.9,0-2.47.55-1.75.21a23.87,23.87,0,0,0-2.59.59c-.51.07-.05-.1,0-.17-.94.14-.38.27-.83.41-.5-.12-.77.26-2.31.49a6.75,6.75,0,0,1,.83-.49c5.45-1.08,7.59-1.75,12.43-2.59.4-.09,0-.11-.3-.08,1-.2,2.09-.45,2.91-.56.24,0,.51,0,.88,0a2.62,2.62,0,0,0,.58-.15c.46,0-.38.22,1.17-.05-.47.43-2,.39-2.9.61a51.2,51.2,0,0,0,5.27-.36c-.16.07-.3.14-.29.22,1.18-.2.66-.37.28-.52-1.29.1-1,.32-2,.43.14-.29,1.25-.71-.62-.52a78,78,0,0,1,8.49-1.06,25.73,25.73,0,0,1,4.65-.41c.56,0,.24-.25,1.17-.2.67.15.66.27.82.42a27.09,27.09,0,0,1,2.85.08c.14-.12-.17-.18-.25-.26-.46.08-1.6,0-2,.13-1.71-.41,1.22-.53,2.62-.26a1.2,1.2,0,0,0-.3.09c.14,0,1.67.17,1.43,0a31.34,31.34,0,0,1,3.42.66,22.59,22.59,0,0,1,3.85,1.37,12.29,12.29,0,0,1,3.85,2.9,8.83,8.83,0,0,1,1.44,1.87,7,7,0,0,1,.55,1.37l.21.6a3.63,3.63,0,0,0,.17.5,1.31,1.31,0,0,0,0-.85c-.07-.37-.13-.73,0-.79-.47-1.16-1.58-2.84-1.64-3.24a11,11,0,0,1-1.91-1.31c-.29,0,.21.35,0,.39-1.37-1-.5-.79-.11-.7a16.7,16.7,0,0,0-1.9-1.27c-.49-.26.27.39-.41.12,0,.14,1.31.46,1.69,1-.28-.1-.7-.33-.85-.26A19.79,19.79,0,0,0,243,241.5c-.87-.29,1.74.35,1.45.11,0-.15-.91-.33-1.66-.45s-.28.19-1.19,0c.73-.09-.33-.28-.83-.27-.67,0,0,.26-.59,0a4.32,4.32,0,0,0-2-.23c.28.13,1.28.15,1.12.35-.91,0-.74-.2-1.43-.23-.24,0-.3.05-.59.05-.22.15.59.12.86.19s-.85,0-.88.05c-.67,0-.69.1-1.17.12-1.29.06-3.06.09-4.68.26a9.31,9.31,0,0,1,2.35-.23c0-.15-1-.06-1.76,0,0-.18-.67-.17-1.17-.2-1,.19.76.08.29.33-1.7.21-1.18-.24-2.06-.28-1.1.12-1.87.16-2.66.19-.54.08-.17.23-.58.32-1.51.23-1.24-.12-3,.18.15-.3-1.13-.11-.91-.43a8.08,8.08,0,0,0,2.65-.51,4.83,4.83,0,0,0-1.19.09c.23-.09.31-.18.29-.28.64-.09.94-.07.89.07.43,0,.72-.32.89-.17.43.05.27.1-.59.19.56,0,.32.28-.28.4.42.13,1-.23,1.77-.28.1.13.47.17.31.39.89-.11.27-.34,1.17-.45.08-.17-1.15.1-.9-.13.43,0,1.53-.26,1.48-.12a6.11,6.11,0,0,1,1.78-.36c-.51.25-.36.4,1.19.19.78.08-.79.23,0,.3a4.39,4.39,0,0,1,1.48-.23c-.11.11.23.1.59.08-.19.15-.59.4,0,.49a3.52,3.52,0,0,1,1.47-.26c.37.22-1,.17-.6.39,1.15,0,.77-.19,1.18-.29.57,0,0,.27,1.16.17.17-.07.11-.23.9-.3-.23-.14-.73.15-1.76.07.47-.17-.65-.1-.87-.16s.07-.14,0-.18-.75,0-.59-.15a6.92,6.92,0,0,1,1.49-.11c-.11.08-.53.1-.6.19a6.07,6.07,0,0,0,1.48-.14c-.1-.3-1.51-.22-2.65-.11-.3-.17.66-.14,1.19-.17-.54-.13-.85-.25,0-.42-.07-.06-.59,0-.59-.1a6.71,6.71,0,0,1-1.8.16c.23-.29,2.71-.32,4.52-.32a20.38,20.38,0,0,1,2.73.05,4.93,4.93,0,0,1-1.22,0,10.71,10.71,0,0,0,1.83.07,3.54,3.54,0,0,1,.88.21c.53.05,1,0,1.55,0s.66.18,1.18.29a11.55,11.55,0,0,1,3,.83c-.35.21-1.51-.09-3-.54,0,.21,1.29.46,2.27.79s.36,0,.39-.13c.57.21.9.31.91.2.52.17,1.39.64,1.19.35,0-.11-1.1-.36-1.4-.62a15.71,15.71,0,0,1,4.45,2.2,10,10,0,0,1,1.09.68,11.68,11.68,0,0,1,1.71,1.68,6.77,6.77,0,0,1,.75,1,9.3,9.3,0,0,1,.6,1,9.13,9.13,0,0,1,.7,1.75c.08.31.19.61.25.92l.13.9a12.45,12.45,0,0,1,.06,1.7c0,.52-.1,1-.15,1.4,0,0-.11-.08-.12,0-.08.3-.06.87-.18,1.26-.12-.39-.13-.22-.16.23a6.56,6.56,0,0,1-.49,1.87c-.13.34,0,.29,0,.37a10.18,10.18,0,0,1-1.62,3,11.47,11.47,0,0,1-.9,1.63c-.29.07-.13-.32.49-1.17-.14-.14-.64.67-1.17,1.4,0,.3.36-.1.46,0a32.33,32.33,0,0,1-3.49,4.25c-.62.67-1.3,1.26-2,1.88l-1,.92-1.05.86a64.65,64.65,0,0,1-8.83,6.2A109.08,109.08,0,0,1,218,285.5c-2.21.77-4,1.4-6.25,2.06-.47.13-.48.22-.85.32l-4.61,1.26c-1,.26-1.84.6-2.88.83l-7.84,1.9a26.11,26.11,0,0,1-5,1,18.9,18.9,0,0,1-3.86.6c.2,0,.69,0,.61.1-2.23.21-3.9.53-6.61.65.11-.09.53-.12.61-.21-1.23,0-.78.24-1.52.31s-.16-.25,0-.3c-.85.06-1.29.18-2.12.23a11.56,11.56,0,0,0-1.3-.05c-.48,0-1,0-1.68,0A15.79,15.79,0,0,1,173,294a12.53,12.53,0,0,1-1.67-.29,4.56,4.56,0,0,1-2.07-1.1,2.81,2.81,0,0,1-.52-.82c-.27-.48-.61-.74-.47-1.56a5.18,5.18,0,0,1,.48-2.4,8.91,8.91,0,0,1,1.54-2.41,7.12,7.12,0,0,1,1.06-1c.49-.42.53-.54,1.08-1a5.1,5.1,0,0,1,.81-.5c.13-.08.42-.38.71-.59,1.06-.78,2.81-1.82,3.82-2.46.45-.29.71-.54,1.26-.88a6,6,0,0,0,.85-.32,13.87,13.87,0,0,1,2.4-1.29c.58-.29,1.25-.73,1.88-1s.6-.19,1.12-.43c1.86-.81,4.36-1.85,6.46-2.56.46-.16.51-.1.87-.22,1.94-.65,3.64-1.27,4.87-1.58a5.64,5.64,0,0,1,.89-.12c1.56-.45,2.86-.87,4.63-1.28.2,0,.68-.1.61,0,.34-.09.23-.17.27-.25,1.9-.4,3.22-1,4.68-1,1-.26,1.06-.22,2.33-.53.34,0,.85-.05.62.19,1.31-.26.36-.21.86-.41,1.34-.31,1.43-.12,2.65-.37.55-.11.16-.24.57-.35,1.48-.15,3.51-.65,5.6-.93.63-.08,1.37-.08,2.08-.18,1.82-.26,5.09-.94,6.22-.77a2.11,2.11,0,0,0,.59-.25c2-.08,3.12-.52,5.35-.58a7.36,7.36,0,0,1,2.38-.4c.11-.07-.48-.13-.59-.12-.32,0-.54.15-.9.2s-.56,0-.89,0-.8.19-1.19.24c-.65.07-1.09.06-1.79.13s-1.67.25-3,.34c-.37,0-.83,0-.9,0-.32,0-1.29.24-2.07.33-1,.12-1.13.17-2.37.33-1,.14-2.52.33-4.15.62-.09-.08.27-.15.28-.23-.9.15-1.94.35-1.79.11-.34.07-.24.15-.28.23s1.05-.15,1.49-.18a23.6,23.6,0,0,1-4.43.81c-.74.05-.9.4-1.17.27-.62,0,.11-.14.57-.29.29-.09-.1-.11.58-.22.24,0,.3,0,.6-.05a3.26,3.26,0,0,1-.88.22c1,0,1.93-.39,2.95-.45.42-.41-2.3.38-1.8-.06a27.53,27.53,0,0,1-4.11,1c-.35.33,1.41-.2,1.21.07a22.7,22.7,0,0,1-3.24.51c.49-.19,2.16-.52,1.14-.54-.57.14-.21.28-1.16.42.21-.39-2,.17-2.35.42a6.58,6.58,0,0,0,1.77-.24c-.25.28-1.47.35-2.34.55.65-.38-.57-.13-1.22-.11-.29.3,1.07,0,.34.29a13.25,13.25,0,0,0-1.79.15c-.83.22.49,0,.61,0-2.84.76-7,1.76-10.77,2.92a6.71,6.71,0,0,0-2,.69,50.82,50.82,0,0,0-6,2.13,13.32,13.32,0,0,1,3.09-1.32c1.73-.64,3.37-1.13,4.59-1.59-.14-.18-.83.11-.37-.26a18.89,18.89,0,0,0-2,.65L193,272c-.6.5-1.76.52-2.89,1-.08.17,1.3-.49.91-.12a74.18,74.18,0,0,0-11.09,4.67,52.17,52.17,0,0,0-5.54,3.34l-1.28.94c-.21.15-.43.3-.63.47l-.67.54a15.31,15.31,0,0,0-2.78,2.72,9.9,9.9,0,0,0-1.1,1.6,8.09,8.09,0,0,0-.68,2.11,5.4,5.4,0,0,0-.05,2,2.56,2.56,0,0,0,.84,1.56c0,.08.18.39.47.66s.63.53.74.66c.41.23.42.11.11-.07a11.38,11.38,0,0,0,5.1,1.2l1.4.06c.23,0,.47,0,.68,0h.52c.7,0,1.38,0,2.06,0a43.09,43.09,0,0,0,7.37-.66c.44,0,0,.06,0,.13,1.05-.22,2.16-.43,3.61-.67,0,.17-1.17.28-1.18.44a25.93,25.93,0,0,1,3-.58c0,.27-1.27.17-1.48.45-.95.2-1.07.07-2.11.28a5.83,5.83,0,0,1-.6.15c-.08.15.08.22.62.15-1,.21-1.13.5-1.2.6a16,16,0,0,0,2.44-.25c.18.17-1,.21-1.21.25s-.16.14-.3.17c-.88.17-2,.3-3.37.48-.53-.06-.48-.39.29-.51.23-.15-1.13-.13-1.23,0-1,0,.63-.25.61-.36-.66.05-1,.14-.92.27-1,.12-.69-.13-1.84,0,.53-.27,2-.07,2.46-.38a15.24,15.24,0,0,0,3.35-.34c.39-.3-2.42.31-1.23-.08-1.24.31-2.11.25-3,.51-.59,0-1.32.07-1.22-.09a15.59,15.59,0,0,1-2.71.22c-.55,0-1.13,0-1.71,0l-.88,0c-.31,0-.76,0-1.13-.06a17.9,17.9,0,0,1-2.72-.06,6.81,6.81,0,0,1-2.18-.59,5.33,5.33,0,0,1-2.91-1.84c.07-.08.41.32.47.2a9.57,9.57,0,0,1-1-1.23,4.49,4.49,0,0,1-.33-2.1,12,12,0,0,1,.27-1.65,3.51,3.51,0,0,0-.44,1.49,4.56,4.56,0,0,1,.25-1.56c.18-.58.43-1.14.53-1.45a7.82,7.82,0,0,1,1.32-1.73c.44-.44.88-.85,1.57-1.45.47-.45-.19.06-.13-.12a10.68,10.68,0,0,1,1-.78c.27-.21.58-.43.73-.53.36-.25.74-.49,1.32-.93a3.25,3.25,0,0,1,.7-.66c0-.15-.25,0-.57.27a7.64,7.64,0,0,1,2.11-1.36c.59-.42-.36.12.19-.34.88-.52.55.12,2-.86-.21.05-.65.31-.62.15,1-.43.93-.73,1.6-1-.08,0-.23.31.07.17s.69-.52.23-.26c-.19-.09,1.52-.76,1.33-.85-.41,0-2.52,1.43-2.3,1-.36.23-.16.27-.17.38ZM186.22,296c-.06-.19-.22-.34-1.23-.22v.36Zm-.33-.75-.91.11c.3.14.33.39,1.84.14C187.33,295.16,185.38,295.61,185.89,295.26ZM169,285a3,3,0,0,1-.71.65,3.13,3.13,0,0,0-.87,1.32c0,.45.43-.53.63-.64,0,.14.23-.26.51-.64S169.09,285,169,285Zm60.7-44.5c-.67.15-1.91.26-1.77.49,1-.06.61-.22,1.18-.31,0,.15-.05.3.6.24Zm13.87.25.86.18c-.15-.22.36-.14.4-.27C243.71,240.44,243.84,240.71,243.52,240.79Zm-.45-.62a3.62,3.62,0,0,1,1.6-.11C243.61,239.81,241.73,239.84,243.07,240.17Zm-5.4-.17c0-.18,1.3-.32-.27-.36.3.22-.64.19-.92.3C237.05,239.93,237.13,240,237.67,240Zm.25.37c-.08.08-.49.09-.6.17a9.85,9.85,0,0,0,1.17.08C238.58,240.49,238.44,240.39,237.92,240.37Zm1.57-.6c.11-.07.45-.09.34-.22a10.33,10.33,0,0,1-1.2-.12C238.55,239.6,238.56,239.75,239.49,239.77Zm5.38,1.57a14.85,14.85,0,0,0-3.15-.58c-.05-.1-.46-.16-.55-.25s.52,0,.61,0a6.74,6.74,0,0,0-1.73-.41,5.54,5.54,0,0,0-1.21.11c.07.3.6.51,2,.68.22-.11-.37-.12-.56-.17s-.85-.32-.25-.33,1.25.26,1.11.47C242.58,241,243.88,241.19,244.87,241.34Zm.18,1.22a4.7,4.7,0,0,0-1.66-.26,4.6,4.6,0,0,1,1.6.43Zm4.8,2.83c-.12-.17-1.65-1.13-1.59-.82S249.86,245.54,249.85,245.39Zm2.4,1.1a8.31,8.31,0,0,0-2.65-2.09c-.41.12.87.8,1.26,1C251.7,246,251.78,246.3,252.25,246.49Zm1.86,2.87c-.13-.82-1-1.59-1.35-2.31C252.8,247.55,253.76,248.68,254.11,249.36Zm-.38,1a4.36,4.36,0,0,0-1.23-2.62A9.58,9.58,0,0,1,253.73,250.41Zm-4.9-8.55s.07-.05.3.07c.16-.1-.28-.35-1-.64C248,241.4,248.09,241.56,248.83,241.86Zm-.26,1.07c.28-.16-1.41-.69-2.09-.94.53,0,0-.26-1-.56-.2.16.4.4,1.12.7Zm.2-.37c-.88-.33-.79-.44-1-.62a3.41,3.41,0,0,0-1.16-.28c1.09.39,1.16.53.46.4C247.78,242.3,249.12,242.75,248.77,242.56Zm.73-.66c.73.46.31.53,1.68,1.28.36.07-.39-.39-.37-.51s.66.32.63.18,0-.2-1-.73C250.54,242.55,250,242,249.5,241.9Zm5.15,4.57c-.06.21-.4-.3-.73-.71s-.64-.74-.46-.26a4.61,4.61,0,0,0-1.38-1.1,10.83,10.83,0,0,0-2.56-2l-.13.2c1.19.58,1.78,1,1.15.91a13.33,13.33,0,0,1,3.22,2.44c0-.21.49.28.8.68S255.07,247.33,254.65,246.47Zm2.26,2.8a6.51,6.51,0,0,0-.71-1.59,8.94,8.94,0,0,0-.86-1.25,9.6,9.6,0,0,0-3-3.24c-.17.05-.11.2,0,.41a20,20,0,0,1,1.71,1.37c-.48-.64-.83-.72-1.09-1.11a4.56,4.56,0,0,1,1.66,1.86c-1.15-1.18-.49-.25-1.33-.91-.42-.4-.45-.5-.87-.85-.15.09.6.69.48.8-.11-.06-1.17-.86-.54-.3a9.69,9.69,0,0,0,.89.55,3.24,3.24,0,0,1,1,1c-.3-.79.54.16.79.59-.31-.51.31,0,.54.42-.27,0,.87,2,.64,2.41l.3,0-.18-.63-.24-.55c-.13-.34-.21-.6-.15-.64.17.4.43.93.56,1.34S256.84,249.51,256.91,249.27Zm-.77,1.63c.18.82,0,.76,0,1.46.14.27.19-.11.19-.56S256.2,250.86,256.14,250.9Zm.7,1.83c0-1.32-.17-.41-.19-.93a6.39,6.39,0,0,0-.13-1.2c0-.35-.13-.6-.22-.6.09.56.15,1,.24,1.44a4.14,4.14,0,0,1,0,.95C256.7,252.16,256.69,252.84,256.84,252.73Zm.06,1.92a5.35,5.35,0,0,0,.24-1.88c0,.25-.09.36-.15.3,0,.38-.08.76-.1,1.05S256.84,254.6,256.9,254.65Zm-.66,2.06c-.26,1-.25.14-.55,1.09-.16.45.09.35-.4,1.17,0,.44.48-.86.48-.43-.39.84-.86,1.25-.84,1.65.43-.79.55-.77.95-1.59.18-.55.29-1,.43-1.53s.26-1.07.41-1.83c-.06-.07-.18,0-.11-.36.22-1.5-.21.8-.16.92-.11.4-.5.79-.42,1.15C256.15,256.64,256.34,256.29,256.24,256.71Zm-1.86,3.11a7.63,7.63,0,0,0,.87-1.57c0-.43-.47.85-.47.42.38-.84.48-1,.76-1.62.08-.51-.08,0-.22-.1-.24.86-.95,2.15-.94,2.52C255,258.22,254.4,259.72,254.38,259.82Zm-.31,1.26a1.62,1.62,0,0,0-1.11,1c.3-.43.45-.51.52-.35-.27.47-.93,1.19-.61,1.07l1.4-2c.23-.33,1.09-1.92.56-1.09Zm-.18-1.24c-.2.33-1.64,2.3-1.14,1.71A4.31,4.31,0,0,0,253.89,259.84Zm-1.44,1.84c.58-.74,0-.31.55-1,.25-.38.24-.1.54-.68l-.2-.14a17.55,17.55,0,0,1-1.29,1.91C252.12,262,252.73,261,252.45,261.68Zm-1,2.28c-.05.2.41-.24.78-.71s.68-.9.41-.62C252,263.63,252.15,263,251.46,264Zm-1.15.52a12.76,12.76,0,0,0,1.62-1.69C251.87,262.54,250.64,263.92,250.31,264.48Zm-2.15,2.44c.57-.45,1.84-1.46,1.88-1.88C249.53,265.57,248.11,266.73,248.16,266.92Zm-.51,1.28c.54-.52,1.2-.72,1.4-1.11C248.7,267.27,247.75,267.77,247.65,268.2Zm.32.43a11.54,11.54,0,0,0,1.25-1.05c.49-.46,1-1,1.42-1.42.06-.38-1.21,1.2-1.22.9.29-.3.12-.34-.29.12-.07.18.45,0,0,.44A2.74,2.74,0,0,0,248,268.63Zm-8.92,6.65c-.6.37-.8.37-1.57.88C237.21,276.56,239.09,275.37,239.05,275.28Zm7.5-7.06c-.16.16-.43.39-.4.44.91-.73.58-.75.7-1l-.88.79C245.91,268.7,246.48,268.13,246.55,268.22Zm0,1.51c.05.16.48-.13.83-.39,0-.13.25-.38.08-.4C247.15,269.21,246.86,269.49,246.54,269.73Zm-3.91,1.63a14.93,14.93,0,0,0,2.27-1.91c.09.13-.55.64-.79.94a4.45,4.45,0,0,0,1.47-1.5,15.84,15.84,0,0,1-2.87,2C243,270.93,242.46,271.31,242.63,271.36Zm1.2.24c-2.42,1.84,1.09-.55.91-.79C244.31,271.16,244.25,271.28,243.83,271.6Zm-3.2,2.2.15.27c0,.09-1.79,1.23-.95.77,1-.66,1.86-1.21,2.52-1.64.25-.52-1.31.83-1.16.38.48-.3.51-.43.95-.74,0,.37,2.6-1.2,2.74-1.83-.94.76-1.88,1.35-2.19,1.58-.62.08.72-.73.53-.84A26.65,26.65,0,0,1,240.63,273.8Zm-4.16,1.64c.67-.45.56-.2,1.07-.5s-.39.06.17-.32c.15,0,.33-.2.76-.46.24.08-.39.46.14.27a5.85,5.85,0,0,0,1-.71c-.14.09-.3.14,0-.05,1.21-.92,1.15-.54,1.84-.95-.2-.15.26-.6-.06-.69a15.29,15.29,0,0,1-2.23,1.43c0,.08,0,.17-.43.43-.76.51-.8.28-1.81,1C236.79,275,236.17,275.4,236.47,275.44Zm.41.17c1-.45.57-.09,1.3-.71-.17.36.72-.23.68,0,.54-.29.85-.8.41-.49,0,.05-.4.36-.49.33l-.06-.11a12.73,12.73,0,0,0,1.71-1.2,9.32,9.32,0,0,0-1.74,1.15,15,15,0,0,0-2.62,1.38C236,276.22,236.54,275.76,236.88,275.61Zm-2.64,2.07a10.09,10.09,0,0,1,1.36-.62l-1.84,1c-.19.18-.28.34-.14.42,1.6-.8,1.55-1.06,2.81-1.77.11-.21-.51.17-.59.14a2.55,2.55,0,0,0,.46-.41,2.4,2.4,0,0,1-.54.24c-.14,0,.48-.42-.31,0C236.1,276.72,234.3,277.47,234.24,277.68Zm-2.56.8a18.59,18.59,0,0,0,2.65-1.33C234,276.93,232.39,278,231.68,278.48Zm-.76.7-.48.2a4,4,0,0,0-.85.27c-.2.1-1,.45-1,.62a9.62,9.62,0,0,1,1.65-.7c-1.3.55-.7.48-1,.67a12.59,12.59,0,0,0-1.65.7c.26.16,2.19-.86,3.06-1.17,0,.06-.19.18-.22.25a8.88,8.88,0,0,0,1.34-.68c.3-.41-1.2.59-.89.18l1.33-.67c.18-.37-1.2.58-1.4.5s.05-.11.17-.17C231.21,279.05,231.07,279.09,230.92,279.18ZM226.6,281c1.47-.59.61-.39,1-.6,1.11-.57,2.41-.95,3.24-1.48-.39.19-.29,0-.35-.09a30.94,30.94,0,0,1-4,1.95Zm-7.48,2.87c0,.08.16.08.32.07a2.81,2.81,0,0,0,1.07-.58A4.65,4.65,0,0,0,219.12,283.83Zm-3,1.61c.48-.2,1.67-.49,1.67-.64C217.46,284.86,216.13,285.27,216.17,285.44Zm-6.17,2.4c.59-.07.36-.11,1.15-.34C211.33,287.21,209.73,287.68,210,287.84Zm-.41-.51a11.25,11.25,0,0,0,2.86-.81A26.86,26.86,0,0,0,209.59,287.33Zm-5.58.76c.46-.1.28.12,1.17-.2l0-.17A4.66,4.66,0,0,0,204,288.09Zm-2.26.83c1-.15,2.19-.5,2-.76-.18,0-1.13.14-1.14.3.17,0,.34-.08.29,0A1.79,1.79,0,0,0,201.75,288.92Zm-4.07.75c-.07.31,1.16-.26,1.73-.41s2-.33,2.29-.64C200.4,289,198.53,289.35,197.68,289.67Zm-2.22,1.18c.38,0,1.75-.28,1.73-.45A9.85,9.85,0,0,0,195.46,290.85Zm15.53-5.5c.92-.29,1.11-.17,2.28-.59C213.23,284.46,211.8,285,211,285.35Zm-3.13.86c.94-.35,1.55-.2,2-.52-1.16.27-.7.06-.05-.23A7.7,7.7,0,0,0,207.86,286.21Zm-3.51.42c.3.06.16.35,1.2,0C205.63,286.42,204.9,286.57,204.35,286.63Zm-.8.53c1.56-.35-1,.64.92.12C204.86,287,204.23,286.85,203.55,287.16Zm-7.71,2.13c-.33.07-.32,0-.31-.11a6.94,6.94,0,0,0-1.14.31C194.21,289.68,195.65,289.48,195.84,289.29Zm-2.39-.28c.06.08-.08.24.31.18-.1-.1.83-.16.87-.12s-.73.2-.55.3c1.28-.25,3-.77,4.3-1,.71-.14,1.06,0,1.75-.19-.91.24-2.5.8-2,.79.56-.33,2.51-.8,2.81-1.06,0,0-.92.19-.59,0,.52-.09,1.16-.47,1.43-.36a3.12,3.12,0,0,0-.85.28,12.5,12.5,0,0,1,1.46-.19c-.3.17-.28.22.32.1-.24-.12,1-.32.52-.44-.71.19-.87.34-1.15.23l.76-.75-1.14.29c-.35.25,1.16-.1.33.17-.28.07-1.26.33-1.15.23s.78-.24.56-.21c-.83.14-1.66.42-2.58.65-.59.15-1.64.23-1.71.47,1.37-.33,1.76-.22,2.91-.45a6.85,6.85,0,0,1-2.32.37,12.16,12.16,0,0,1-2.58.59c-.08-.15,1.88-.35,1.4-.5A22.8,22.8,0,0,1,193.45,289Zm-5.35,2.37a2.6,2.6,0,0,0,2.06,0,1.43,1.43,0,0,1-.59,0,16.9,16.9,0,0,1,2-.42c-.32.25.47.06.6.13,1-.15,1.11-.32,2-.47-.23-.14-.22-.07,0-.3C192.17,290.69,190.13,291.07,188.1,291.38Zm-8.19,1.07a21.27,21.27,0,0,0,2.64-.23c.09.14-.85.13-.88.25.22,0,.58,0,.58,0l.59-.05c0-.09-.1-.21.3-.27.41.23,1.51-.13,2.34-.24v.18c1.18-.33,3.09-.22,3.21-.52-1.22.26-2.16.18-1.48-.08a16,16,0,0,0-2.62.52C183.06,292.26,180.45,292,179.91,292.45Zm-4.73-1.76c.48-.05.54.1.79-.08-.31-.09-.28,0-.69-.1Zm-2,.9a3.18,3.18,0,0,0,1.25.27C174.87,291.72,173.3,291.56,173.21,291.59Zm-.76.42c1.64.38-.43.15.2.41a11.46,11.46,0,0,0,2.94.22c.65-.05-.41-.19.31-.22a10,10,0,0,0,2.22.32c.52-.09.82-.22.91-.38-1.06,0-2.35,0-1.18.14-.51,0-.9-.06-1.29-.1s-.67-.1-1.11-.12a3.52,3.52,0,0,1-1.46,0C173.43,292.2,172.9,292.05,172.45,292Zm-.56.18c-.29-.13-.08-.11.13-.1-.64-.28-.31-.36-.88-.77-.23-.14-.28.06-.14.32A1.14,1.14,0,0,0,171.89,292.19ZM281.56,277c0,.24-.14.58-.09.63.25-.75.13.68.34-.34C281.81,277,281.72,277.17,281.56,277Zm-5.2-8.54c1.17.37,1.75.7,2.57.91A9.91,9.91,0,0,0,276.36,268.44ZM262.68,268a15.84,15.84,0,0,1,1.71.18C264.45,268,262.75,267.83,262.68,268Zm-4.35-.1c.8-.12,1.64.15,2.32,0C260.37,267.86,258.16,267.69,258.33,267.92Zm-28.08,1.67c.3-.11.28-.25.58-.37l-1.17.14C229.62,269.51,229.61,269.66,230.25,269.59Zm-13.49.71c1.11-.22.61.17,2.05-.17.13-.21-1,0-.31-.25A6.52,6.52,0,0,0,216.76,270.3Zm-4.49,2.35c.9-.24.71,0,1.17-.1.05-.19-.57-.1-.9-.13,0-.12.78-.23.55-.35C211.36,272.37,212.44,272.35,212.27,272.65ZM196,276.34a6.27,6.27,0,0,0,1.65-.61C196.66,276.08,196,276.05,196,276.34Zm-7.44,1.27,1.37-.51C190.17,276.76,188.27,277.47,188.6,277.61Zm-1.87,1.73c.7-.29,1.58-.6,1.56-.77C187.75,278.83,186.41,279.23,186.73,279.34Zm-4.21,1.78c.88-.41,2.1-1.18,1.46-1C183.9,280.25,181.93,281,182.52,281.12Zm-6.06,2.55a4.2,4.2,0,0,0,1.8-.89C178.53,282.23,177.32,283.11,176.46,283.67ZM174,287.15c.46-.24.7-.64,1.18-.78,0-.13-.1,0-.15,0a1.46,1.46,0,0,1-.24.17C174.46,286.65,173.83,286.93,174,287.15Zm-3.48,2.62a11,11,0,0,1,.21-2.13,10.82,10.82,0,0,0-.63,1.15,1.38,1.38,0,0,0-.1,1.1C170,289.29,170.42,289.61,170.49,289.77Zm3.24-5c0-.29-1.18.82-1.68,1.27-.23.26-.27.39-.65.8-.06-.18-.33,0-.69.59.1.19.56-.57.66-.35a1.72,1.72,0,0,0-.56,1.3,7.28,7.28,0,0,1,1.19-2A8.74,8.74,0,0,1,173.73,284.74Zm13.53-7.56c-.22.07-.34.08-.31,0a14.51,14.51,0,0,1-1.36.57C185.39,278,187.43,277.14,187.26,277.18Zm5.22-2.05c-.64.2-1,.37-1.08.5a8.78,8.78,0,0,0,1.13-.32Zm2-.57a2.49,2.49,0,0,0-1.78.18c-.24.31.37,0,.62.06,0,0-.39.21,0,.12Zm19.26-4.93a6.22,6.22,0,0,0-1.74.45c.86-.18.91,0,1.77-.21Zm46.09,30c-.15-.05.47-.51,1.12-1-.49.32-.39.06-1,.54C259.8,299.3,258.83,300.3,259.82,299.62Zm-5.46,3.5c.21-.11.32-.13.31,0a4.7,4.7,0,0,0,1.18-.93C255.42,302.45,254.34,303,254.36,303.12Zm13.11-.5c-.74.09-1.21-.19-1.77.05A4.85,4.85,0,0,0,267.47,302.62Zm4.42.24c-.53,0-.69,0-.58-.16-.93,0-1.05.14-2.07.14A5.66,5.66,0,0,0,271,303c.13,0,0-.15.3-.13C271.3,303,272.09,303.05,271.89,302.86Zm5-.38c.15-.16-1.52-.26-1.76-.14C275.72,302.39,276.24,302.44,276.93,302.48Zm-26,42.69c-1.1.26-1,.59.05.23Zm7.55-2.63c0-.19-.88.13-1.71.42C256.64,343.23,257.62,342.84,258.46,342.54Zm4.66,3.06c-.41.06,0-.4-1,0-.22.17-.33.31-.2.41C262.5,345.78,262.61,345.82,263.12,345.6Zm7.36-3.19c0-.15-.41.08-.61.11.12-.23.44-.57-.66,0,0,.08.17.06.34,0-.6.3-.87.46-.77.57A10.09,10.09,0,0,1,270.48,342.41Zm-1.29-5.61c-.7.42-2.49,1.14-2.3,1.31s.34-.33,1-.59c.06.06.13.1.57-.15C268,337.38,269.35,336.88,269.19,336.8Zm3.59,3.9c-.67.36-1.69,1-1.26,1a18.27,18.27,0,0,1,2.65-1.61C274.34,339.76,273.26,340.45,272.78,340.7Zm3.1-2.08c-.35.34-1.29.88-1.19,1.09C276,339.07,277.08,338.05,275.88,338.62ZM288,324c.51-.46.53-.21,1.18-.86C289.2,322.88,288.12,323.7,288,324Zm10.08-17.22.2-.13a6.09,6.09,0,0,0-.65-.69C297.44,306,297.54,306.17,298.08,306.76Zm-36.52-4.51a12.71,12.71,0,0,0,2.37-.3A14.48,14.48,0,0,0,261.56,302.25Zm-3.86-.09a7.61,7.61,0,0,0,1.78,0A3.11,3.11,0,0,0,257.7,302.16Zm-2.65,1.12c.08-.26-1.72.15-2.07.24A10.22,10.22,0,0,0,255.05,303.28Zm-10.94.85c.79-.17.57,0,.89,0a14.32,14.32,0,0,0,2.65-.51,5.19,5.19,0,0,0,.89,0,36,36,0,0,1,5.61-.76c-.28-.09,1.69-.22.59-.19-.56.05-.65.14-1.18.2a5.19,5.19,0,0,0-1.79,0c-.54,0-.74.15-1.47.24s-1.7.11-2.37.2c-.39.05-.4.13-.89.19C246.26,303.59,244.1,303.86,244.11,304.13Zm-35,8.62c.68-.2,1.36-.3,2-.49s.85-.39,1.39-.58c.28-.09.23,0,.3,0a.48.48,0,0,0,.27-.14,9.38,9.38,0,0,0,2.52-1c-1.07.25-2.68.89-4.25,1.43C210.56,312.2,209.36,312.4,209.12,312.75Zm2.56,6.65a7.41,7.41,0,0,0-1.72.38C209.72,320.05,211.87,319.49,211.68,319.4Zm-5.12,1.53c1.11-.08,1.11-.5.54-.41C207.34,320.67,206.12,320.78,206.56,320.93Zm1.48,0c-.68.13-.56-.08-1.47.11C205.07,321.47,207.56,321.37,208,320.94Zm.58-7.76c0-.2-.68.05-.65-.15.21-.09.55-.2.55-.26C207,313.34,206.89,313.8,208.62,313.18Zm-16.7,5a6.64,6.64,0,0,0,.6-.37l.61-.39c.4-.27.78-.57,1-.75A9.08,9.08,0,0,0,191.92,318.19Zm4.64,8.93a4.35,4.35,0,0,1-1.33.11l-1.33-.17c-.07.14-.89.07-.07.29.39,0,1.14,0,1.73,0S196.62,327.22,196.56,327.12Zm17-3.28c-.39,0-1.46.23-1.47.39C212.45,324.23,213.52,324,213.53,323.84ZM211.61,321a12.77,12.77,0,0,0-2.31.57c.25-.3-1.1.18-1.16.2-.61.12-.77,0-1.47.11.24.22-1.58.4-1.72.62-.52.08-1.46.33-1.18.09.91-.2,1.2-.08,1.45-.33a8.71,8.71,0,0,0-1.46.21c-.53.13-2.39.87-2.62.57.16,0,.33-.09,0-.06-.35.23-1.73,0-2,.37.18.05,1.12-.16,1.18-.06a17.05,17.05,0,0,0-3.23.54,2.28,2.28,0,0,1-.59-.1,10.5,10.5,0,0,1-2,.11s.06-.11,0-.12a2.57,2.57,0,0,1-1.41-.28c0-.07.11-.12,0-.24-.31-.14-.16.14,0,.34a3.59,3.59,0,0,0-.51-.3c-.06-.05-.3-.09-.25-.7a.67.67,0,0,1,.22-.37,3.29,3.29,0,0,0,.37-.47,2.49,2.49,0,0,1,.73-.87,28.65,28.65,0,0,1,5-3,2.87,2.87,0,0,1,1-.7,66.39,66.39,0,0,1,7.33-3.3c.09-.5-2.11.67-3.08,1.09-1.69.69-3.24,1.32-4.65,2,.05.08-.14.24-.46.43a28.13,28.13,0,0,0-5.31,3.31c-.22,0,.57-.69-.33.05a4.59,4.59,0,0,0-.81,1.29,1.37,1.37,0,0,0-.08,1.44,1.9,1.9,0,0,0,1.14.79,11.38,11.38,0,0,0,2.21.23,21.27,21.27,0,0,1,3.25-.44c-.38-.24,1.48-.35,2-.54-.08.13-.79.23-.87.37,1-.27,1.42-.18,2.65-.41.45-.32-1.27.2-1.19,0a16.53,16.53,0,0,1,2.63-.52c0-.08.08-.16.58-.23-.55.3.11,0,.88-.1a9.1,9.1,0,0,0,2.61-.62c0,.1,0,.2-.26.3a3.93,3.93,0,0,0,1.43-.5,32.91,32.91,0,0,1,4.08-.72c0,.08-.49.26,0,.17s.41-.34.82-.52c.78-.2,1.39-.1,1.72-.44a17.33,17.33,0,0,1-2.6.55c.46-.18,1.29-.42,2-.64a6.22,6.22,0,0,1,1.45-.31C218.16,319.09,211.49,320.94,211.61,321ZM225,317c-.15.27,1-.12,1.43-.36C226.56,316.39,225.38,316.78,225,317Zm8-4.19a18.79,18.79,0,0,1-2.21.77,2.67,2.67,0,0,0,1.44-.29c-.17.06-.33.12-.29.05A3.86,3.86,0,0,0,233,312.83Zm2.09-.18a5.58,5.58,0,0,0-1.62.71A4,4,0,0,0,235.08,312.65Zm.91,0c0-.25-.74.14-1.4.45C234.37,313.37,235.47,312.79,236,312.6Zm1.86,2.93a6.39,6.39,0,0,0-1.9,1A6.59,6.59,0,0,0,237.85,315.53Zm.66.11c-.07.24.66-.06,1.46-.41C240,315,239.31,315.3,238.51,315.64Zm3.78-2c-.69.31-1.34.61-1.34.75C241.39,314.27,242.55,313.73,242.29,313.62Zm2-4.15c-1.05.39-.46.39-1.31.73-.55.2-2.79,1-3,1.37a18.16,18.16,0,0,1,2.45-1.06c-.08,0-.84.44-.25.18C242.6,310.35,244.63,309.63,244.27,309.47Zm1.58,2.51c-.76.4-.74.25-1.39.57,0,.11.13.15.36.1A2.8,2.8,0,0,0,245.85,312Zm6.5-6.91c-1.25.86-2.15,1-2.57,1.5a19.37,19.37,0,0,0,1.94-.73c.26-.25.24-.31-.1-.22A1.91,1.91,0,0,0,252.35,305.07Zm2.76-1.07c-.67.4-.81.56-.67.67C255.14,304.28,255.61,303.81,255.11,304Zm13.62-9c-.19.13-.3.17-.3.08-.7.46-1.6,1.28-1.68,1.22s1.06-.77.87-.84a9.21,9.21,0,0,0-1.65,1.26c.45-.1,0,.26.42.14C267.24,296.13,268.15,295.52,268.73,295Zm12.78-12.27c-.32.45-.43.46-.76.87.28-.06-.15.43,0,.44A3.32,3.32,0,0,0,281.51,282.74Zm2-3.46a15.59,15.59,0,0,0-.83,1.47c.06.06.17-.05.28-.15-.31,1-1,1.43-1.22,1.95a8.94,8.94,0,0,0,1.51-2.11c-.05-.09-.23,0-.08-.38.12,0,.43-.86.55-1,.23-.89.22-1.06.18-.89A5.76,5.76,0,0,1,283.5,279.28Zm-28.76-17.79a13.66,13.66,0,0,0,2.44-.06c-.36,0-.18-.07,0-.12C256.15,261.39,255.18,261.11,254.74,261.49Zm-.62.13c0,.06.53.06.61,0a7.67,7.67,0,0,0-1.5-.22C253,261.58,254,261.5,254.12,261.62Zm-4.23,0c.41.07,1.82,0,1.82-.18C250.88,261.55,250.3,261.37,249.89,261.6ZM244.11,264a13.26,13.26,0,0,0,2.09-.3A4.63,4.63,0,0,0,244.11,264Zm-1.46-1.94c1.14-.05,1.37,0,1.81-.24A3.43,3.43,0,0,0,242.65,262.05ZM222.38,266a13.28,13.28,0,0,0,1.77-.32c0-.11-.2-.18-.6-.16C224,265.71,222.72,265.83,222.38,266Zm-1.78.15c.18,0,.9.1,1.18-.13-.77-.15.75-.14,1.18-.29C222.84,265.38,220.9,266,220.6,266.14Zm-12.5,1.29c.4,0,2.07-.3,2.06-.48C209.39,267.25,208.64,267.16,208.1,267.43Zm-11.17,2.72a2.17,2.17,0,0,1,.86-.36c.11-.22-.41-.14-.93-.05.06.09-.27.21-.86.36C195.89,270.33,196.41,270.23,196.93,270.15Zm-2.69.46a2.81,2.81,0,0,0,.95.1C195.07,270.58,195.52,270.15,194.24,270.61Zm.24,1.18c1.08-.42,3.19-.9,3.45-1.23-.52.05-.34.13-.86.3C196.18,271.14,194.33,271.57,194.48,271.79Zm-9.86,3c-.51.3-1.27.65-1.33.85.78-.4.76-.24,1.42-.56Zm1.31-.93a11.08,11.08,0,0,0,1.41-.63c.2-.21-.43-.27-.64,0C187.39,273.06,186.21,273.72,185.93,273.9Zm-4.58,1.84c.68-.41,2.46-1,2.21-1.16C182.86,274.92,181.09,275.6,181.35,275.74Zm0,.06c.1.09.69-.19,1.39-.52s1.51-.72,2-.92c0-.12.93-.42.8-.52-1,.39-1.52.7-2.09,1S182.35,275.36,181.37,275.8Zm13.1,48.11a1.73,1.73,0,0,1-1.59-.16,3.48,3.48,0,0,1,.77.17c.06,0-.09-.07-.23-.13C193.52,323.76,194.05,323.91,194.47,323.91Zm46-82.68c.2-.19,1.1,0,1.73.14A6.61,6.61,0,0,1,240.45,241.23Zm43.46,33.39a12.08,12.08,0,0,0-.55-1.69,14.65,14.65,0,0,0-.89-1.69c.18-.17.26.32.45.66a3.79,3.79,0,0,1,.69,1.26A7.29,7.29,0,0,1,283.91,274.62Zm-37.18-8.85c-.9.12-2.11.15-3.85.29A28.54,28.54,0,0,1,246.73,265.77Zm10.94-8.42a4.28,4.28,0,0,1-.51,1.81,21.93,21.93,0,0,1-1.2,2.13c-.44.79-1.21,2.1-1.49,2.1A19.71,19.71,0,0,0,257.67,257.35ZM231.43,240c.53,0,.62-.12,1.19-.15a1,1,0,0,1,.58.44C232.29,240.22,231.54,240.18,231.43,240Zm27.2,10.53a5.37,5.37,0,0,1,.17.9c0,.36,0,.79,0,1.24a17.63,17.63,0,0,1-.3,2.51l.21-2.19A12.85,12.85,0,0,0,258.63,250.48Zm-15,23.17c1.44-1,3-2.34,4.11-3.23a49.81,49.81,0,0,1-7.61,5.71C239.6,276.36,242.67,274.46,243.67,273.65Zm-14-33.83c1-.1,2-.19,3-.26C232.05,239.63,229.8,240.06,229.64,239.82ZM221.35,241a4.75,4.75,0,0,1,1.77-.3A5.63,5.63,0,0,1,221.35,241Zm4.73-.72a12.52,12.52,0,0,1,3-.29,16.84,16.84,0,0,1-2.37.4C226.69,240.29,226.45,240.27,226.08,240.29Zm26.47,5.24c.76.84.85.69,1.38,1.37a2.06,2.06,0,0,0,.53,1.09,5.91,5.91,0,0,1,.58,1.1c-.11-.12-.21-.23-.29-.19a5.19,5.19,0,0,0-.48-1c-.21-.32-.38-.61-.35-.69C253.58,246.71,252.31,245.7,252.55,245.53ZM236.44,308c-1.89.44-3.79.8-6.07,1.25,1.54-.43,3.44-.86,5.48-1.26C236.34,307.83,236.4,307.89,236.44,308Zm27.84-5.1L262.5,304C262.51,303.91,264.28,302.57,264.28,302.86Zm26-3.64a7.28,7.28,0,0,1,2,.29c.51.13,1.83.61,1.58.67A21.27,21.27,0,0,0,290.23,299.22Zm-38.76,11.34a33.43,33.43,0,0,0-3,1.46c-1.1.55-2.55,1.38-2.78,1.23C247.53,312.49,250.84,310.44,251.47,310.56Zm-50.56,2.15c-1,.22,2.11-1,2.51-1.27a3.12,3.12,0,0,0,.88-.29C204,311.55,201.27,312.41,200.91,312.71Zm33.19,5c-.72.27-1.46.54-1.46.36C233.44,317.78,234.18,317.5,234.1,317.73Zm19-8.69c.18.08-1.47.75-1.29.84-.27,0-2.09,1.15-2,.81C251,310.12,251.82,309.82,253.13,309Zm8.38-4.93a22.54,22.54,0,0,1-2.41,1.27S261.69,303.7,261.51,304.11Zm-9.28,5.15c-.87.49-1.89,1-1.94.82C250.78,310,252.23,309,252.23,309.26Zm-3.56,1.64c-.13.3,1.12-.48.92-.13-.9.46-1,.29-2,.79C247.66,311.43,248,311.2,248.67,310.9Zm2-5.41a17.64,17.64,0,0,1-3.21.56c-2.72.4-4.88.75-7.28,1.16-1.2.2-2.74.73-3.2.52,2.33-.3,4.79-.94,7.27-1.32C246.16,306.11,248.33,305.85,250.69,305.49Zm-25.2,4.86c-.54.14-2.1.61-2.86.72A10.88,10.88,0,0,1,225.49,310.35Zm-16.38,4.7c-.39.23-1.18.52-1.88.82C207,315.73,208.5,315.31,209.11,315.05Zm12.94-3.9c.11.22-3.08.94-3.69,1.06C219,311.88,220.91,311.5,222.05,311.15Zm50.67-7.59a19.15,19.15,0,0,1-2.93.15A22.75,22.75,0,0,1,272.72,303.56Zm22.35,3.11c-.34,0-.79-.43-1.39-.68a31.31,31.31,0,0,0-7.88-1.88c.48-.27,1.86.17,2.59.31a27.29,27.29,0,0,1,3.13.72A14,14,0,0,1,295.07,306.67ZM254.5,305a9.53,9.53,0,0,1-3.22.38C252.14,305.38,253,305.17,254.5,305Zm14.7-1.35c0,.16-1.39.21-1.76.15C267.48,303.69,268.68,303.74,269.2,303.68Zm16.4-19.56a18.32,18.32,0,0,1-2.49,3.28C283.47,286.81,284.92,285.27,285.6,284.12Zm-89.47,9.6c-.38.18-1.31.38-1.76.56a1.53,1.53,0,0,0,.61,0c-.44.32-.46,0-1.2.19A9.78,9.78,0,0,1,196.13,293.72Zm7.06-1.58c-.19.36-1.39.47-2.32.65A19.62,19.62,0,0,1,203.19,292.14Zm-9.65,3c-.89.17-1.83.35-1.82.16C192,295.38,193.8,294.83,193.54,295.12Zm6.81-1.71a182.71,182.71,0,0,0-3.55.77A21.85,21.85,0,0,1,200.35,293.41Zm-6.56,1.17a8.25,8.25,0,0,1-1.49.35c-.19.05-.23.16-.29.17-.48.12-.54,0-.91.11a7.08,7.08,0,0,1-1.81.48c-.32-.13.67-.2,1.21-.32-.17-.16.69-.37-.33-.24.35-.28.63-.06.91-.1s.08-.12.29-.17c.46-.13,1.25-.09,2.11-.34C193.44,294.6,193.56,294.61,193.79,294.58Zm-17.22,1.87c-1.08,0-1.89-.05-2.67,0a9,9,0,0,1-3-.44c.3-.06-.52-.26-1.11-.54.58.11,1.46.35,2.45.51s2.1.25,2.93.4c0-.15-.81-.23.09-.29-.5,0-1.22,0-2-.1a10.61,10.61,0,0,1-2.28-.48,3.91,3.91,0,0,1-2.31-1.46,10.1,10.1,0,0,0,1.62,1,7.77,7.77,0,0,0,1.89.64c.51.12,1.58.05.54-.1.7.07,1.54.07,2.43.12.44,0,.93.05,1.35.05l1,0a25.5,25.5,0,0,0,3.45-.1,13.25,13.25,0,0,1-2.8.34c-.24.13,1.13.22,1.24.09,1.15.12-1.19.16-1.88.15s.15-.18.34-.3c-.65,0-1,0-1.53,0l-1.87-.14c-.47.21,1.4.22,1.75.27.13,0-.72.06-.49.1s.64,0,.88.05.41.06.28.15C176.6,296.33,176.65,296.41,176.57,296.45Zm17.32-1c-1.21.28-2.23.66-3.31.92-.8.2-.43,0-1.23.2a44.36,44.36,0,0,1-7.81,1.18c-.31-.06-1.07,0-1.26-.11-.1-.27,1.82-.25,1-.47,1.12-.17,1.41-.06,2.52-.25,0-.26-1.88,0-3.14,0,0-.11.39-.15.33-.26a32.82,32.82,0,0,0,5.9-.49c.15.11-.43.18-.92.23a3.78,3.78,0,0,0-1.24.45c1.13,0,1-.16,1.55-.3a39.63,39.63,0,0,0,6.43-1A4.16,4.16,0,0,0,193.89,295.47Zm-5.78,1.13a5.88,5.88,0,0,0-.93,0c-.2.26,1.18,0,2.16-.14C191.43,296.13,189,296.44,188.11,296.6Zm-8.72-.05c.08-.06.63-.06.63-.14a9.91,9.91,0,0,0-1.87,0c0,.05.38,0,.62,0,.15.19-.88.29.61.23a5.36,5.36,0,0,1-1.89.09c-.24,0,.68-.08.64-.06a5,5,0,0,0-.91,0h-.8a5.74,5.74,0,0,1-.81,0c-.1-.07.08-.09.38-.08h.89a25.2,25.2,0,0,1,4.4-.46c-.17.05-.33.11-.32.19a5.88,5.88,0,0,1,1.87-.37c-.09.17.11.26.92.16-.3.39-1.92.39-3.11.53,0-.17.52-.15,0-.24S180.37,296.58,179.39,296.55ZM204,291.5c-.05.1-.87.25-.86.35-.76.18-1.68.44-2.33.59-1,.24-2.26.55-2.37.38.7-.19.66,0,1.48-.29l0-.18a23.53,23.53,0,0,0-3.24.7c-.36-.15.9-.3,1.45-.46s1-.34,1.45-.46c1.46-.4,3-.75,4.07-1.09.73,0-.42.22-.24.37-.31-.17-2.5.44-3.52.77a3.93,3.93,0,0,0,1.8-.14c.15-.2-.15-.18-.91,0A20.66,20.66,0,0,1,204,291.5Zm-34.27,4a3.65,3.65,0,0,1-1.71-1,8.3,8.3,0,0,1-1.51-2c.38.83.52,1,.33.82a3.93,3.93,0,0,1-.87-1.55c.18.08.05-.32,0-.86a3.7,3.7,0,0,1,.13-1.65c0,.28.07,1.68.18,0a5.13,5.13,0,0,1,.07,1.29,4.72,4.72,0,0,0,.46,1.86,2.4,2.4,0,0,1-.48-1c-.14-.42-.19-.76-.29-.49.05.4.12.31.19.39a5.41,5.41,0,0,0,1.34,2.52c.23.23.19.08.24,0s.17.07.89.62c.24.28-.18.12-.34.11s-.09,0,.08.18A4.72,4.72,0,0,0,169.73,295.52Zm43.08-6a9.68,9.68,0,0,0,1.75-.49C214.78,289.24,212.67,289.75,212.81,289.56Zm-65.12-23.8c-.56.47-2.32,1.32-3.35,1.94C144.89,267.23,146.66,266.38,147.69,265.76Zm65.39,23.59c-.56.26-1.32.54-1.39.74-1,.29-2.23.68-2.36.51a15.69,15.69,0,0,0,2.62-.77c0-.06-.37.06-.6.11A5.38,5.38,0,0,1,213.08,289.35Zm-70.81-24c0-.13.4-.38,1-.7,0-.16-.49.14-.1-.22.94-.64,2-1.23,3.13-1.87,1.7-.95,3.43-2,5.3-2.95a6.9,6.9,0,0,1,.84-.34c1.37-.66,2.72-1.37,4.06-2.08s2.72-1.35,4.08-2c.49-.22,1.17-.45,1.68-.69.31-.14.74-.43,1.08-.58s1-.34,1.41-.52L167.9,252c1.11-.45,2.25-.9,3.31-1.28-.19.25.44,0,.36.18,1.11-.51-.11-.09-.08-.29,2.06-.87,3.09-1.15,3.93-1.64.6-.37.81-.23,1.16-.35a7.69,7.69,0,0,1,2-.71c-.43-.25.8-.4,1.38-.72a5.31,5.31,0,0,1-1.22.09c-.45.26.18.18-.49.56-.89.35-1,.25-2,.65l-.06-.24c-1,.32-.09.37-1.34.86-.06-.09.32-.25.23-.33a23.94,23.94,0,0,1-2.27.88,16.1,16.1,0,0,1-3,1.43,11.57,11.57,0,0,1,1.64-.83c-.3,0-.78.18-1.18.27-.62.24.31,0,.32,0-.13.15-.5.21-.84.39a2.59,2.59,0,0,1-1.38.66c-.33,0,.6-.31.82-.44s-.14-.19.5-.45a12.66,12.66,0,0,0-2.86,1c.08.27,1.14-.43,1.46-.4s-.9.52-1,.74c-1,.34-.17-.05-.37-.17a5.92,5.92,0,0,0-2,.59c-.07-.21.91-.8,1.35-.76.74-.37-.78.2-.37-.17a9.45,9.45,0,0,1,2-.81c.27-.11.6-.3,1.12-.5,1.31-.49,2.86-1,4.29-1.52.59-.21.76-.34,1.13-.47l6.63-2.22c.87-.3,1.51-.45,2.33-.69,2.44-.77,5-1.41,7.49-2.13s5-1.28,7.47-1.76c.49-.1.78-.09,1.21-.16,1-.18,2-.48,3.24-.77A21.75,21.75,0,0,0,205,240c.93-.22.8,0,1.5-.12,1.46-.43,3.14-.58,4.76-1,.53-.12,0,.22-.58.28,1.11,0,2.66-.56,2.37-.61,1.1-.13,2.5-.39,2.71-.17,1.38-.49,3.86-.38,5.08-.89a2.13,2.13,0,0,1,.9,0c.21,0,.5-.13.9-.17,1.32-.11,3.61-.26,5.42-.48a6.13,6.13,0,0,0,1.51-.28c.36,0,.26.09.31.15a30.88,30.88,0,0,1,4.34-.31c.3,0,.24-.09.32-.14a18.4,18.4,0,0,1,2.53.08c.71,0,.47-.11,1-.11.72.09,2.17.19,3.57.35.84.08,2.47.3,3,.4.7.12,1.39.2,2,.36a21.63,21.63,0,0,1,6.78,3c1.81,1.17,3.76,2.83,4.43,4.35a12.69,12.69,0,0,1,.94,1.37c.29.6.24.7.46,1.16a13.13,13.13,0,0,1,.93,3.21,16.56,16.56,0,0,1-.67,6.57c-.16.54-.14.65-.27,1.08s-.5,1.09-.73,1.64-.35,1-.52,1.33c-.07.17-.36.54-.56.88-.32.53-.3.68-.66,1.22a41.25,41.25,0,0,1-4.87,6,8.13,8.13,0,0,1-.74.63,19.91,19.91,0,0,1-3.3,3,12.24,12.24,0,0,1-1.74,1.5c-.73.52-1.58,1.11-2.49,1.81,0-.12.82-.65.67-.72a3.53,3.53,0,0,0-.93.89c-.55.24-1.75,1.11-2.64,1.69-.63.35-.22.33-.72.64l-2,1.22c-.65.37-1.31.71-1.95,1.06-1.26.7-2.52,1.29-3.69,1.93-.63.35-1,.62-1.64.91-1.74.88-3.59,1.56-5.38,2.31-.54.22-1.17.54-1.7.74s-.87.23-1.46.44-.87.39-1.42.59c-2.12.78-4.64,1.57-7,2.24-.22-.13,1.12-.36,2-.71.54-.2,1.8-.9,2-.68,1-.31.65-.45,1.68-.78,0,.1.25.07.62,0-.18-.08.91-.61,1.71-.68.24-.33-1.11.3-.94,0,1.92-.75,2.72-1.08,4.25-1.71.18-.32-1.27.39-1,0,2-.68,3.24-1.58,4.8-2,.57-.29.56-.36.22-.29.6-.38,1.1-.34,1.11-.52.66-.29-.26.3-.2.36l2.52-1.39c.79-.43,1.62-.82,2.66-1.35,0-.05-.35.14-.57.24l2.24-1.29c.91-.54,1.85-1.13,2.58-1.48,1-.53.55-.58,1.48-1.16a10.46,10.46,0,0,0,1.61-.92c.45-.27.46-.37.45-.45.57-.39,1.43-.88,1.47-1.16-.26,0-1.4,1-2,1.4,0-.18-.22-.16-.89.3a5.92,5.92,0,0,1-.49.4c.2-.06.62-.34.61-.19-3.22,2.09-5.61,3.4-8,4.67a82.59,82.59,0,0,1-8,3.72c-.36.07-.14,0-.05-.17-1.79.77-3.3,1.39-4.8,1.9-.31.13-.16.19-.54.32-.79.26-1.61.52-1.5.23-.73.34-.87.37-.51.44a3,3,0,0,0-.88.18c.06-.24,1.15-.64,1.61-1a16,16,0,0,0,2.57-.88c.5,0-1,.41-.8.5.61-.06,2.23-.86,1.36-.72,1.12-.37,1.6-.77,2.26-.88.17.07-.37.26-.81.44.45,0,1.82-.7,1.64-.8.72-.27,1.48-.58,2.28-.91s1.6-.76,2.44-1.18,1.22-.42,2-.76c.29-.17.14-.21.5-.39,1.28-.6,2.7-1.42,4.06-2.18s2.64-1.56,3.66-2.14c.37,0-.75.61-1.24.92a6.5,6.5,0,0,0,2.24-1.65,47.35,47.35,0,0,0,8.28-6.4c.24-.06.71-.58.34-.06.77-.6.51-.58.84-.95a28.06,28.06,0,0,0,4.91-5.92c.32-.52.64-1.14,1-1.74s.62-1.23.83-1.8a21.17,21.17,0,0,0,1-2.55c.12-.53.2-1.19.3-1.73s.21-.81.27-1.41a14.23,14.23,0,0,0-.08-2.06c-.07-.46-.15-.94-.23-1.36l-.32-1c-.14-.37-.17-.24-.34-.69a7.76,7.76,0,0,0-1.12-2.33,11.47,11.47,0,0,0-.73-1.1,1.78,1.78,0,0,0-.64-.61,10.78,10.78,0,0,0-1.75-1.77,7.15,7.15,0,0,0,.78.72c-.46-.09-1.05-.82-1.7-1.25a21,21,0,0,0-5.58-2.62,32.5,32.5,0,0,0-6.5-1.3,42.16,42.16,0,0,0-6.27-.11c-.55,0-.65,0-1.23,0a16,16,0,0,1-3.35.21,22.83,22.83,0,0,1-3.6.52,3.84,3.84,0,0,1,.89-.17c.1-.12-1.67.1-1.19.21a11.28,11.28,0,0,0-2.39.17c0,.06.36,0,.6,0-.6.14-1.52.26-2.5.38s-2,.28-2.87.42a22.27,22.27,0,0,0-4.47.47c.19.09,1.5-.25,1.2,0-1.71.25-2,.52-3.84.81-1.1.18-2.29.27-3.56.56a3.23,3.23,0,0,1,.88-.25c-.66,0-2,.41-1.16.43-.67.15-1.11.21-1.19.12a32.86,32.86,0,0,1-3.21.76c-1.2.28-2.45.56-3.53.86,1-.41-1.29.06-1.77.3.21.17,1.45-.51,1.19-.16-2.82.66-6.21,1.57-8.16,2.11.07-.12-.29,0-.32-.09l-.83.43c-1.25.37-2.55.73-3.76,1.11l-6.6,2.05c-.53.19-1.16.47-1.69.66l-4.58,1.62c-1.72.66-3.52,1.35-5,2-.9.39-1.63.79-2.47,1.15-1.79.79-3.52,1.44-5.25,2.26l-3.2,1.51-3,1.53c-.48.24-.59.21-1.1.47s-.72.42-1.06.58a8.36,8.36,0,0,0-2.12,1.15l-3.47,1.81-3.43,1.9c-.07-.08.27-.3.17-.37l2.11-1.17c.57-.31,0-.26.14-.42-.6.29-.33.31-.74.55-.66.38-.28,0-.58.18a3.75,3.75,0,0,0-.77.5C143,265.08,142.77,264.93,142.27,265.34Zm96.27,12.29c-.52.33-1.18.4-1.61.89C237.46,278.2,238.11,278.13,238.54,277.63Zm-11.12,6.7c-.55.16-1.35.49-2,.73-.1.27,1.61-.3,1.78-.44C226.37,284.94,227.6,284.35,227.42,284.33Zm3-.64a7.19,7.19,0,0,0-2.28.91A12.37,12.37,0,0,0,230.44,283.69Zm9.24-5.14a11.12,11.12,0,0,0-2.39,1.49C238.19,279.43,239,279.16,239.68,278.55Zm5.77-5.53c-.41.14-2.2,1.69-1.68,1.38C243.91,274.13,245.37,273.25,245.45,273Zm14.12-16.78a23.25,23.25,0,0,0-.74,2.45A6.19,6.19,0,0,0,259.57,256.24Zm-1.86-11.45c-.06.16.63.9.75,1-.32-.52-.64-1.05-1-1.55a14,14,0,0,0-1.15-1.38c-.22-.07,0,.22.39.62A10.07,10.07,0,0,1,257.71,244.79Zm-37.4-6.35a3.53,3.53,0,0,0,1.49-.41C221,238.15,220.26,238.28,220.31,238.44Zm-1.45.76c1.09-.23,3.53-.29,3.87-.62-1.15.07-.46,0-.9.18C220.91,239.08,219,238.79,218.86,239.2Zm-6.53,1.2c.58,0,1.83-.31,1.77-.49A5.69,5.69,0,0,0,212.33,240.4Zm-.6,0c-.87.17-.92,0-1.79.2C209.58,240.86,211.47,240.57,211.73,240.39Zm-12.87,1.32,1.18-.28C200.47,241.05,198.48,241.59,198.86,241.71Zm-4.4,1.18c1.54-.49,1,.05,2.39-.38-.06-.19-1,.07-1.52.09s.94-.3.55-.4A3.19,3.19,0,0,0,194.46,242.89ZM185,244.94l-1.16.38C183.68,245.62,185.29,245.09,185,244.94Zm-1.6,1.15a6.5,6.5,0,0,0,1.7-.68,1.32,1.32,0,0,1-.6.07C183.78,245.73,183.41,245.93,183.41,246.09Zm-15,4.82a7.08,7.08,0,0,0-1.8.34c-.39.39.85-.17,1.19-.23.1,0,0,.12,0,.11l.58-.16c.38-.1.76-.27,1.15-.38C169.83,250.31,168.93,250.73,168.43,250.91Zm1.93-.94,1.42-.54C172.16,249.08,169.87,250,170.36,250Zm2.67-.57c-.33-.2-1.49.53-2.05.53.12.1-.8.38-.8.5C171.27,250.09,171.74,249.8,173,249.4Zm2.14-1.35a6.71,6.71,0,0,0-1.4.63c-.3.1-1.58.37-1.41.59C172.92,249.13,175.3,248.26,175.17,248.05Zm4.62-1.48c-.69.25-1.46.55-1.38.72C179.1,247,179.88,246.74,179.79,246.57Zm-28,13.59c.16,0,.2.19.91-.17.43-.35.54-.46.14-.47C152.12,259.84,152.37,259.9,151.83,260.16Zm-3.61,2.28a1.34,1.34,0,0,1,.58-.17c-.28.14-.66.38-.24.19a18.53,18.53,0,0,1,1.87-1c0-.29-1,.36-1.65.72C148.82,262.08,148.36,262.25,148.22,262.44Zm60.42,27.73c-1.41.42-1.6.59-2.86,1.05a20.08,20.08,0,0,1-2.1.18,20.66,20.66,0,0,1,3.13-1.21,8,8,0,0,1-2,.79c-.06.18.44.08,1.19-.14.16-.34,3.49-1.65,4-1.32a6.31,6.31,0,0,0-1.45.42c1.26-.08,3.44-1.13,4.36-1.18l0-.24c-1.1.3-1.36.51-2.3.77-.65-.15,2.65-1.13,2.86-1a17.5,17.5,0,0,1,2.29-.75c-.23.19-1,.46-1.09.62-.54.16-.24-.13-.9.09-.41.15-.06.21-.54.36a5.6,5.6,0,0,0,1.17-.3,7.77,7.77,0,0,1-2.53,1.1C210.9,289.72,209.7,289.85,208.64,290.17Zm.44.69-.88.25c.69-.34-.45,0-.35-.21C208.77,290.63,208.88,290.76,209.08,290.86Zm4.85-1.84c1.13-.31,1-.32,1.74-.5C215.69,288.62,213.56,289.34,213.93,289Z" transform="translate(26.13 -10.66)"/></g><path class="cls-12" d="M133.57,168.45c-2.95.62-5,3.51-5.5,6.48s.32,6,1.35,8.82a13.38,13.38,0,0,0,3,5.28,5.5,5.5,0,0,0,5.63,1.45,8.39,8.39,0,0,0,2.42-1.73l2-1.8a12.36,12.36,0,0,0,3.39-4.17,8.54,8.54,0,0,0-.27-6.24A14.11,14.11,0,0,0,133,167.78" transform="translate(26.13 -10.66)"/><path class="cls-13" d="M112.85,31.15Q113.06,21,114.05,11c0-.32-.16-.37-.41-.22a1.46,1.46,0,0,0-.54,1q-1,10.06-1.2,20.19c0,.84.95-.33.95-.76Z" transform="translate(26.13 -10.66)"/><path class="cls-13" d="M116.25,33.39q4.29-6.53,9-12.74c.17-.22.53-.69.45-1s-.29-.11-.44.08Q120.45,26.1,116,32.79c-.09.14-.49.76-.32.93s.44-.19.54-.33Z" transform="translate(26.13 -10.66)"/><path class="cls-13" d="M106.2,32.52q-2.28-4.55-4.3-9.22c-.36-.83-1.47.24-1.18.91q2,4.68,4.31,9.22c.4.81,1.5-.26,1.17-.91Z" transform="translate(26.13 -10.66)"/></g><polygon class="cls-16" points="285.49 193.28 293.69 185.96 283.25 182.52 285.49 193.28"/><path class="cls-2" d="M29.51,167.71,28.35,165,31,163.87l.4.93-1.75.76.75,1.75Zm4.18,9.7-1.15-2.68.93-.4.75,1.75,1.75-.76.4.93Zm9.71-4.19-.41-.93,1.75-.75L44,169.79l.93-.4,1.15,2.67ZM41,162.76,40.2,161l-1.75.76-.4-.93,2.68-1.15,1.15,2.67Zm1.31,7.81,1-.42.42,1-1,.42Zm-.84-1.95,1-.42.42,1-1,.42ZM40.87,170l1-.42.42,1-1,.42Zm-.55,1.4,1-.42.42,1-1,.42Zm-1.38-.56,1-.42.42,1-1,.41Zm1.11-2.79,1-.42.42,1-1,.42Zm-.57,1.4,1-.42.42,1-1,.42Zm-1.38-.56,1-.42.42,1-1,.41Zm1.66-6.82,1.69,3.9-3.89,1.68-1.68-3.9Zm-2.9,7.35,1.68,3.9L34.64,175,33,171.12Zm-2.22-5.13,1.69,3.89-3.9,1.69L30.74,166Zm2.8,8.59-1-2.35-2.35,1,1,2.35Zm-2.22-5.14-1-2.35-2.35,1,1,2.35Zm5.12-2.21-1-2.35-2.35,1,1,2.35Z" transform="translate(26.13 -10.66)"/><path class="cls-17" d="M212,70.19l-10.56-9.75,16.86-7.67Zm-.62-2.41,4.54-12.43-12.08,5.47,2.77,2.56,4.71-3.05-2.7,4.91Zm0,0" transform="translate(26.13 -10.66)"/></svg>