<svg xmlns="http://www.w3.org/2000/svg" xml:space="preserve" id="Layer_1" x="0" y="0" style="enable-background:new 0 0 245 161" version="1.1" viewBox="0 0 245 161"><style>.st0{fill:#277ee0}.st2{fill:#e87073}.st3{fill:#44d5a7}.st4{fill:#def0ff}</style><g id="Success_Check"><g id="Group_456" transform="translate(-597 -129)"><circle id="Ellipse_11" cx="719.5" cy="244.4" r="46" class="st0"/><path id="_103184_checkmark_yes_ok_check_icon" d="M738.8 227.6c-.6-.6-1.5-.6-2 0l-21.3 21.2c-.5.6-1.4.6-2 0l-9.3-9.5c-.6-.6-1.5-.6-2 0l-4.1 3.7c-.3.3-.4.6-.4 1s.2.8.4 1l9.4 9.9 2 2 4 4.1c.6.6 1.5.6 2 0l27.4-27.3c.6-.6.6-1.5 0-2l-4.1-4.1z" style="fill-rule:evenodd;clip-rule:evenodd;fill:#fff"/><g id="Group_453" transform="translate(-3.463 5)"><circle id="Ellipse_14" cx="603.3" cy="235.2" r="2.9" class="st2"/><circle id="Ellipse_13" cx="842.6" cy="235.2" r="2.9" class="st3"/></g><circle id="Ellipse_15" cx="623" cy="183.3" r="2.9" class="st3"/><circle id="Ellipse_18" cx="810.7" cy="183.3" r="2.9" class="st4"/><circle id="Ellipse_17" cx="747.8" cy="180.7" r="2.9" class="st0"/><path id="Path_353" d="m778.4 147.7 3.3 1.8c.7.4 1 1.3.6 2-.1.2-.3.5-.6.6l-3.3 1.8c-.2.1-.5.3-.6.6l-1.8 3.3c-.4.7-1.3 1-2 .6-.2-.1-.5-.3-.6-.6l-1.8-3.3c-.1-.2-.3-.5-.6-.6l-3.3-1.8c-.7-.4-1-1.3-.6-2 .1-.2.3-.5.6-.6l3.3-1.8c.2-.1.5-.3.6-.6l1.8-3.3c.4-.7 1.3-1 2-.6.2.1.5.3.6.6l1.8 3.3c.2.3.4.5.6.6z" class="st4"/><path id="Path_361" d="m787 232.7 2 1.1c.4.2.6.8.4 1.2-.1.1-.2.3-.4.4l-2 1.1c-.1.1-.3.2-.4.4l-1.1 2c-.2.4-.8.6-1.2.4-.1-.1-.3-.2-.4-.4l-1.1-2c-.1-.1-.2-.3-.4-.4l-2-1.1c-.4-.2-.6-.8-.4-1.2.1-.1.2-.3.4-.4l2-1.1c.1-.1.3-.2.4-.4l1.1-2c.2-.4.8-.6 1.2-.4.1.1.3.2.4.4l1.1 2c.1.1.2.3.4.4z" class="st4"/><path id="Path_355" d="m680 136-14.4 7.1-1.7 6.2 14.8-8.6 1.3-4.7z" class="st0"/><path id="Path_359" d="m788.8 211.3 15.7-3.4 3.1-5.6-16.5 4.8-2.3 4.2z" class="st2"/><g id="Group_451" transform="rotate(-98 423.287 -200.666)"><path id="Path_357" d="m16.4 39.5-2-1.3c1.8-2.8 2.1-6.6 1.1-11.8-.3-1.8-.9-3.5-1.7-5.1-.2.2-.4.4-.5.6-2 2.1-5.2 2.5-7.7 1.1-.6-.4-1.1-.9-1.5-1.5-1-1.9-.4-4.1 1.2-5.4 1.5-1.1 3.4-1.4 5.2-.8 1.1.3 2.1.8 2.9 1.6.1-.7.2-1.4.2-2.1 0-1.4-.4-2.7-1.2-3.8l-.2.2c-1.9 2.8-5.5 3.1-8.1 2.4-.3-.1-.7-.2-.9-.5-.5-.5-.7-1.2-.6-1.9.3-1.4 1.1-2.6 2.2-3.4 1.4-.7 3.1-1 4.7-.8.4 0 .8.1 1.2.2-.5-1.4-1.4-2.7-2.7-3.4C5.6 2.3 2.4 2.3-.3 2.3V-.1c2.9 0 6.6 0 9.6 1.8 1.8 1.1 3.2 2.9 3.7 5 .1.5.2 1.1.2 1.6 1.8 1.6 2.9 3.9 2.8 6.4 0 1.4-.2 2.9-.7 4.2 1.3 2.1 2.2 4.5 2.6 7 1.1 6 .6 10.3-1.5 13.6zM8.6 17.4c-.7 0-1.3.2-1.9.6-.7.5-1 1.5-.6 2.3.2.3.4.5.7.7 1.6.8 3.6.5 4.9-.8.3-.3.6-.6.8-1-.7-.8-1.6-1.4-2.6-1.7-.5 0-.9-.1-1.3-.1zm-3.7-6c1.8.4 4.2.3 5.4-1.4.1-.1.1-.2.2-.3-.5-.2-.9-.3-1.3-.3-1.1-.2-2.2-.1-3.2.4-.5.4-.9 1-1.1 1.6z" class="st3"/></g><g id="Group_452" transform="rotate(-98 420.215 -155.664)"><path id="Path_358" d="m19 7.8 5.6 3c1.2.7 1.7 2.2 1 3.4-.2.4-.6.8-1 1l-5.6 3c-.4.2-.8.6-1 1l-3 5.6c-.7 1.2-2.2 1.7-3.4 1-.4-.2-.8-.6-1-1l-3-5.6c-.2-.4-.6-.8-1-1l-5.6-3c-1.2-.7-1.7-2.2-1-3.4.2-.4.6-.8 1-1l5.6-3c.4-.2.8-.6 1-1l3-5.6c.7-1.2 2.2-1.7 3.4-1 .4.2.8.6 1 1l3 5.6c.3.4.6.8 1 1z" class="st4"/></g><g id="Group_454" transform="translate(-108.015 -115.916)"><path id="Path_360" d="M839 254.6c1-6.6-6.9-9.4-6.9-9.4l-1.6 4.2c4.7 1.2 5.2 7.6 5.2 7.6l3.3-2.4z" class="st2"/></g></g></g></svg>